<?xml version="1.0" encoding="iso-8859-1"?>
<!-- Generator: Adobe Illustrator 16.0.0, SVG Export Plug-In . SVG Version: 6.00 Build 0)  -->
<!DOCTYPE svg PUBLIC "-//W3C//DTD SVG 1.1//EN" "http://www.w3.org/Graphics/SVG/1.1/DTD/svg11.dtd">
<svg version="1.1" id="Capa_1" xmlns="http://www.w3.org/2000/svg" xmlns:xlink="http://www.w3.org/1999/xlink" x="0px" y="0px"
	 width="315.327px" height="315.327px" viewBox="0 0 315.327 315.327" style="enable-background:new 0 0 315.327 315.327;"
	 xml:space="preserve">
<g>
	<path d="M253.433,84.243l-39.975,39.975l18.056,18.051l-95.422,95.422l-38.686,18.046l-0.323-0.321l-25.469,25.467l-9.29-9.29
		l-42.551,42.823L0,294.645l42.551-42.817l-9.406-9.409l25.764-25.756l17.865-38.276l95.42-95.43l19.827,19.825l39.975-39.976
		L253.433,84.243z M234.579,60.224l21.438,21.438l29.655-29.655l-21.438-21.438L234.579,60.224z M267.626,27.185l21.438,21.438
		l4.991-4.994l-21.438-21.438L267.626,27.185z M312.831,3.41l-21.842-2.498L280.835,21.38l14.027,14.022l20.465-10.154L312.831,3.41
		z"/>
</g>
<g>
</g>
<g>
</g>
<g>
</g>
<g>
</g>
<g>
</g>
<g>
</g>
<g>
</g>
<g>
</g>
<g>
</g>
<g>
</g>
<g>
</g>
<g>
</g>
<g>
</g>
<g>
</g>
<g>
</g>
</svg>
