<?xml version="1.0" encoding="UTF-8" standalone="no"?>
<svg
   xmlns:dc="http://purl.org/dc/elements/1.1/"
   xmlns:cc="http://creativecommons.org/ns#"
   xmlns:rdf="http://www.w3.org/1999/02/22-rdf-syntax-ns#"
   xmlns:svg="http://www.w3.org/2000/svg"
   xmlns="http://www.w3.org/2000/svg"
   xmlns:sodipodi="http://sodipodi.sourceforge.net/DTD/sodipodi-0.dtd"
   xmlns:inkscape="http://www.inkscape.org/namespaces/inkscape"
   viewBox="0 0 22 22"
   version="1.1"
   id="svg6"
   sodipodi:docname="visibility.svg"
   inkscape:version="0.92.4 (5da689c313, 2019-01-14)">
  <metadata
     id="metadata10">
    <rdf:RDF>
      <cc:Work
         rdf:about="">
        <dc:format>image/svg+xml</dc:format>
        <dc:type
           rdf:resource="http://purl.org/dc/dcmitype/StillImage" />
      </cc:Work>
    </rdf:RDF>
  </metadata>
  <sodipodi:namedview
     pagecolor="#ffffff"
     bordercolor="#666666"
     borderopacity="1"
     objecttolerance="10"
     gridtolerance="10"
     guidetolerance="10"
     inkscape:pageopacity="0"
     inkscape:pageshadow="2"
     inkscape:window-width="1628"
     inkscape:window-height="1017"
     id="namedview8"
     showgrid="false"
     inkscape:zoom="10.727273"
     inkscape:cx="-8.9957627"
     inkscape:cy="11"
     inkscape:window-x="44"
     inkscape:window-y="0"
     inkscape:window-maximized="1"
     inkscape:current-layer="svg6" />
  <defs
     id="defs3051">
    <style
       type="text/css"
       id="current-color-scheme">
      .ColorScheme-Text {
        color:#232629;
      }
      </style>
  </defs>
  <path
     style="color:#232629;fill:currentColor;fill-opacity:1;stroke:none;stroke-width:1.15536714"
     d="M 10.997744,5.8008475 A 11.553672,11.553644 0 0 0 0.962747,11.658919 c 0.2138688,0.33671 0.5148629,0.608794 0.868782,0.796573 a 10.398305,10.398279 0 0 1 9.166215,-5.4992772 4.6214689,4.6214689 0 0 0 -4.6214696,4.6214682 4.6214689,4.6214689 0 0 0 4.6214696,4.621469 4.6214689,4.6214689 0 0 0 4.621468,-4.621469 4.6214689,4.6214689 0 0 0 -4.224311,-4.6011591 10.398305,10.398279 0 0 1 8.766801,5.4812241 c 0.357495,-0.189066 0.66085,-0.464943 0.875551,-0.805598 A 11.553672,11.553644 0 0 0 10.997744,5.8008475 Z m 0,2.3107345 a 3.4661017,3.4661017 0 0 1 3.466101,3.466101 3.4661017,3.4661017 0 0 1 -3.466101,3.466101 3.4661017,3.4661017 0 0 1 -3.4661024,-3.466101 3.4661017,3.4661017 0 0 1 3.4661024,-3.466101 z m 0,1.1553672 c -1.2801474,0 -2.3107352,1.0305878 -2.3107352,2.3107338 0,1.280147 1.0305878,2.310735 2.3107352,2.310735 1.280147,0 2.310734,-1.030588 2.310734,-2.310735 0,-0.23663 -0.04508,-0.460073 -0.110573,-0.674716 -0.182411,0.397119 -0.57766,0.674716 -1.044795,0.674716 -0.640073,0 -1.155366,-0.515294 -1.155366,-1.155367 0,-0.4671341 0.277596,-0.8623794 0.674715,-1.0447945 -0.214642,-0.065486 -0.438085,-0.1105723 -0.674715,-0.1105723 z"
     class="ColorScheme-Text"
     id="path4"
     inkscape:connector-curvature="0" />
</svg>
