<?xml version="1.0" encoding="UTF-8" standalone="no"?>
<!-- Generator: Adobe Illustrator 16.0.0, SVG Export Plug-In . SVG Version: 6.00 Build 0)  -->

<svg
   xmlns:dc="http://purl.org/dc/elements/1.1/"
   xmlns:cc="http://creativecommons.org/ns#"
   xmlns:rdf="http://www.w3.org/1999/02/22-rdf-syntax-ns#"
   xmlns:svg="http://www.w3.org/2000/svg"
   xmlns="http://www.w3.org/2000/svg"
   xmlns:xlink="http://www.w3.org/1999/xlink"
   xmlns:sodipodi="http://sodipodi.sourceforge.net/DTD/sodipodi-0.dtd"
   xmlns:inkscape="http://www.inkscape.org/namespaces/inkscape"
   version="1.1"
   id="Layer_1"
   x="0px"
   y="0px"
   width="24"
   height="24"
   viewBox="0 0 24 24"
   enable-background="new 0 0 512 512"
   xml:space="preserve"
   inkscape:version="0.91 r13725"
   sodipodi:docname="raysession24.svg"
   inkscape:export-filename="/home/houston/Images/raysession/icone app/24/raysession_s4.png"
   inkscape:export-xdpi="90"
   inkscape:export-ydpi="90"><metadata
     id="metadata9"><rdf:RDF><cc:Work
         rdf:about=""><dc:format>image/svg+xml</dc:format><dc:type
           rdf:resource="http://purl.org/dc/dcmitype/StillImage" /><dc:title></dc:title></cc:Work></rdf:RDF></metadata><defs
     id="defs7"><linearGradient
       inkscape:collect="always"
       id="linearGradient4298"><stop
         style="stop-color:#515151;stop-opacity:1;"
         offset="0"
         id="stop4300" /><stop
         style="stop-color:#515151;stop-opacity:0;"
         offset="1"
         id="stop4302" /></linearGradient><radialGradient
       inkscape:collect="always"
       xlink:href="#linearGradient4298"
       id="radialGradient4306"
       cx="146.24127"
       cy="330.64374"
       fx="146.24127"
       fy="330.64374"
       r="55.55122"
       gradientTransform="matrix(0.05302052,0.00652783,-0.00661044,0.05362932,11.712008,-1.5055712)"
       gradientUnits="userSpaceOnUse" /><radialGradient
       inkscape:collect="always"
       xlink:href="#linearGradient4298"
       id="radialGradient4306-2"
       cx="146.24127"
       cy="330.64374"
       fx="146.24127"
       fy="330.64374"
       r="55.55122"
       gradientTransform="matrix(0.05302052,0.00652783,-0.00661044,0.05362932,1.0444301,-1.2622923)"
       gradientUnits="userSpaceOnUse" /><filter
       style="color-interpolation-filters:sRGB"
       inkscape:label="Film Grain"
       id="filter4830"
       inkscape:menu="Image Effects"
       inkscape:menu-tooltip="Adds a small scale graininess"><feFlood
         flood-opacity="0.498039"
         flood-color="rgb(0,0,0)"
         result="flood"
         id="feFlood4832" /><feComposite
         in="flood"
         in2="SourceGraphic"
         operator="in"
         result="composite1"
         id="feComposite4834" /><feGaussianBlur
         in="composite1"
         stdDeviation="3"
         result="blur"
         id="feGaussianBlur4836" /><feOffset
         dx="6"
         dy="6"
         result="offset"
         id="feOffset4838" /><feComposite
         in="SourceGraphic"
         in2="offset"
         operator="over"
         result="fbSourceGraphic"
         id="feComposite4840" /><feColorMatrix
         result="fbSourceGraphicAlpha"
         in="fbSourceGraphic"
         values="0 0 0 -1 0 0 0 0 -1 0 0 0 0 -1 0 0 0 0 1 0"
         id="feColorMatrix4886" /><feTurbulence
         id="feTurbulence4888"
         type="fractalNoise"
         numOctaves="3"
         baseFrequency="1"
         seed="0"
         result="result0" /><feColorMatrix
         id="feColorMatrix4890"
         result="result4"
         values="0"
         type="saturate" /><feComposite
         in2="result4"
         id="feComposite4892"
         in="fbSourceGraphic"
         operator="arithmetic"
         k1="1.25"
         k2="0.5"
         k3="0.5"
         result="result2"
         k4="0" /><feBlend
         in2="fbSourceGraphic"
         id="feBlend4894"
         result="result5"
         mode="normal"
         in="result2" /><feComposite
         in2="fbSourceGraphic"
         id="feComposite4896"
         in="result5"
         operator="in"
         result="result3" /></filter><filter
       style="color-interpolation-filters:sRGB"
       inkscape:label="Film Grain"
       id="filter4842"
       inkscape:menu="Image Effects"
       inkscape:menu-tooltip="Adds a small scale graininess"><feFlood
         flood-opacity="0.498039"
         flood-color="rgb(0,0,0)"
         result="flood"
         id="feFlood4844" /><feComposite
         in="flood"
         in2="SourceGraphic"
         operator="in"
         result="composite1"
         id="feComposite4846" /><feGaussianBlur
         in="composite1"
         stdDeviation="3"
         result="blur"
         id="feGaussianBlur4848" /><feOffset
         dx="6"
         dy="6"
         result="offset"
         id="feOffset4850" /><feComposite
         in="SourceGraphic"
         in2="offset"
         operator="over"
         result="fbSourceGraphic"
         id="feComposite4852" /><feColorMatrix
         result="fbSourceGraphicAlpha"
         in="fbSourceGraphic"
         values="0 0 0 -1 0 0 0 0 -1 0 0 0 0 -1 0 0 0 0 1 0"
         id="feColorMatrix4898" /><feTurbulence
         id="feTurbulence4900"
         type="fractalNoise"
         numOctaves="3"
         baseFrequency="1"
         seed="0"
         result="result0" /><feColorMatrix
         id="feColorMatrix4902"
         result="result4"
         values="0"
         type="saturate" /><feComposite
         in2="result4"
         id="feComposite4904"
         in="fbSourceGraphic"
         operator="arithmetic"
         k1="1.25"
         k2="0.5"
         k3="0.5"
         result="result2"
         k4="0" /><feBlend
         in2="fbSourceGraphic"
         id="feBlend4906"
         result="result5"
         mode="normal"
         in="result2" /><feComposite
         in2="fbSourceGraphic"
         id="feComposite4908"
         in="result5"
         operator="in"
         result="result3" /></filter><filter
       style="color-interpolation-filters:sRGB"
       inkscape:label="Film Grain"
       id="filter4854"
       inkscape:menu="Image Effects"
       inkscape:menu-tooltip="Adds a small scale graininess"><feFlood
         flood-opacity="0.498039"
         flood-color="rgb(0,0,0)"
         result="flood"
         id="feFlood4856" /><feComposite
         in="flood"
         in2="SourceGraphic"
         operator="in"
         result="composite1"
         id="feComposite4858" /><feGaussianBlur
         in="composite1"
         stdDeviation="3"
         result="blur"
         id="feGaussianBlur4860" /><feOffset
         dx="6"
         dy="6"
         result="offset"
         id="feOffset4862" /><feComposite
         in="SourceGraphic"
         in2="offset"
         operator="over"
         result="fbSourceGraphic"
         id="feComposite4864" /><feColorMatrix
         result="fbSourceGraphicAlpha"
         in="fbSourceGraphic"
         values="0 0 0 -1 0 0 0 0 -1 0 0 0 0 -1 0 0 0 0 1 0"
         id="feColorMatrix4910" /><feTurbulence
         id="feTurbulence4912"
         type="fractalNoise"
         numOctaves="3"
         baseFrequency="1"
         seed="0"
         result="result0" /><feColorMatrix
         id="feColorMatrix4914"
         result="result4"
         values="0"
         type="saturate" /><feComposite
         in2="result4"
         id="feComposite4916"
         in="fbSourceGraphic"
         operator="arithmetic"
         k1="1.25"
         k2="0.5"
         k3="0.5"
         result="result2"
         k4="0" /><feBlend
         in2="fbSourceGraphic"
         id="feBlend4918"
         result="result5"
         mode="normal"
         in="result2" /><feComposite
         in2="fbSourceGraphic"
         id="feComposite4920"
         in="result5"
         operator="in"
         result="result3" /></filter><filter
       style="color-interpolation-filters:sRGB"
       inkscape:label="Film Grain"
       id="filter4866"
       inkscape:menu="Image Effects"
       inkscape:menu-tooltip="Adds a small scale graininess"><feFlood
         flood-opacity="0.498039"
         flood-color="rgb(0,0,0)"
         result="flood"
         id="feFlood4868" /><feComposite
         in="flood"
         in2="SourceGraphic"
         operator="in"
         result="composite1"
         id="feComposite4870" /><feGaussianBlur
         in="composite1"
         stdDeviation="3"
         result="blur"
         id="feGaussianBlur4872" /><feOffset
         dx="6"
         dy="6"
         result="offset"
         id="feOffset4874" /><feComposite
         in="SourceGraphic"
         in2="offset"
         operator="over"
         result="fbSourceGraphic"
         id="feComposite4876" /><feColorMatrix
         result="fbSourceGraphicAlpha"
         in="fbSourceGraphic"
         values="0 0 0 -1 0 0 0 0 -1 0 0 0 0 -1 0 0 0 0 1 0"
         id="feColorMatrix4922" /><feTurbulence
         id="feTurbulence4924"
         type="fractalNoise"
         numOctaves="3"
         baseFrequency="1"
         seed="0"
         result="result0" /><feColorMatrix
         id="feColorMatrix4926"
         result="result4"
         values="0"
         type="saturate" /><feComposite
         in2="result4"
         id="feComposite4928"
         in="fbSourceGraphic"
         operator="arithmetic"
         k1="1.25"
         k2="0.5"
         k3="0.5"
         result="result2"
         k4="0" /><feBlend
         in2="fbSourceGraphic"
         id="feBlend4930"
         result="result5"
         mode="normal"
         in="result2" /><feComposite
         in2="fbSourceGraphic"
         id="feComposite4932"
         in="result5"
         operator="in"
         result="result3" /></filter><filter
       style="color-interpolation-filters:sRGB"
       inkscape:label="Film Grain"
       id="filter4842-9"
       inkscape:menu="Image Effects"
       inkscape:menu-tooltip="Adds a small scale graininess"><feFlood
         flood-opacity="0.498039"
         flood-color="rgb(0,0,0)"
         result="flood"
         id="feFlood4844-2" /><feComposite
         in="flood"
         in2="SourceGraphic"
         operator="in"
         result="composite1"
         id="feComposite4846-5" /><feGaussianBlur
         in="composite1"
         stdDeviation="3"
         result="blur"
         id="feGaussianBlur4848-7" /><feOffset
         dx="6"
         dy="6"
         result="offset"
         id="feOffset4850-4" /><feComposite
         in="SourceGraphic"
         in2="offset"
         operator="over"
         result="fbSourceGraphic"
         id="feComposite4852-9" /><feColorMatrix
         result="fbSourceGraphicAlpha"
         in="fbSourceGraphic"
         values="0 0 0 -1 0 0 0 0 -1 0 0 0 0 -1 0 0 0 0 1 0"
         id="feColorMatrix4898-9" /><feTurbulence
         id="feTurbulence4900-4"
         type="fractalNoise"
         numOctaves="3"
         baseFrequency="1"
         seed="0"
         result="result0" /><feColorMatrix
         id="feColorMatrix4902-5"
         result="result4"
         values="0"
         type="saturate" /><feComposite
         k4="0"
         in2="result4"
         id="feComposite4904-9"
         in="fbSourceGraphic"
         operator="arithmetic"
         k1="1.25"
         k2="0.5"
         k3="0.5"
         result="result2" /><feBlend
         in2="fbSourceGraphic"
         id="feBlend4906-3"
         result="result5"
         mode="normal"
         in="result2" /><feComposite
         in2="fbSourceGraphic"
         id="feComposite4908-5"
         in="result5"
         operator="in"
         result="result3" /></filter><filter
       style="color-interpolation-filters:sRGB"
       inkscape:label="Film Grain"
       id="filter4842-9-8"
       inkscape:menu="Image Effects"
       inkscape:menu-tooltip="Adds a small scale graininess"><feFlood
         flood-opacity="0.498039"
         flood-color="rgb(0,0,0)"
         result="flood"
         id="feFlood4844-2-9" /><feComposite
         in="flood"
         in2="SourceGraphic"
         operator="in"
         result="composite1"
         id="feComposite4846-5-6" /><feGaussianBlur
         in="composite1"
         stdDeviation="3"
         result="blur"
         id="feGaussianBlur4848-7-4" /><feOffset
         dx="6"
         dy="6"
         result="offset"
         id="feOffset4850-4-3" /><feComposite
         in="SourceGraphic"
         in2="offset"
         operator="over"
         result="fbSourceGraphic"
         id="feComposite4852-9-3" /><feColorMatrix
         result="fbSourceGraphicAlpha"
         in="fbSourceGraphic"
         values="0 0 0 -1 0 0 0 0 -1 0 0 0 0 -1 0 0 0 0 1 0"
         id="feColorMatrix4898-9-3" /><feTurbulence
         id="feTurbulence4900-4-8"
         type="fractalNoise"
         numOctaves="3"
         baseFrequency="1"
         seed="0"
         result="result0" /><feColorMatrix
         id="feColorMatrix4902-5-6"
         result="result4"
         values="0"
         type="saturate" /><feComposite
         k4="0"
         in2="result4"
         id="feComposite4904-9-0"
         in="fbSourceGraphic"
         operator="arithmetic"
         k1="1.25"
         k2="0.5"
         k3="0.5"
         result="result2" /><feBlend
         in2="fbSourceGraphic"
         id="feBlend4906-3-4"
         result="result5"
         mode="normal"
         in="result2" /><feComposite
         in2="fbSourceGraphic"
         id="feComposite4908-5-8"
         in="result5"
         operator="in"
         result="result3" /></filter></defs><sodipodi:namedview
     pagecolor="#ffffff"
     bordercolor="#666666"
     borderopacity="1"
     objecttolerance="10"
     gridtolerance="10"
     guidetolerance="10"
     inkscape:pageopacity="0"
     inkscape:pageshadow="2"
     inkscape:window-width="1636"
     inkscape:window-height="1021"
     id="namedview5"
     showgrid="false"
     inkscape:zoom="9.4796503"
     inkscape:cx="0.037368651"
     inkscape:cy="17.778511"
     inkscape:window-x="44"
     inkscape:window-y="0"
     inkscape:window-maximized="1"
     inkscape:current-layer="Layer_1" /><path
     style="opacity:1;fill:#1d1d1d;fill-opacity:1;stroke:none;stroke-width:0;stroke-linejoin:miter;stroke-miterlimit:4;stroke-dasharray:none;stroke-opacity:1"
     d="M 5.4813826,20.795364 C 4.4905128,20.471997 3.6345914,19.610618 3.2674023,18.567269 3.1242174,18.160412 3.1176472,17.955262 3.2208253,17.112974 3.3360055,16.172681 3.3571471,16.109706 3.7348194,15.58162 c 1.6992651,-2.376031 5.244025,-1.797128 6.1391204,1.002596 0.2606042,0.815129 0.124072,1.940621 -0.3217273,2.652087 -0.5985525,0.955256 -1.5888847,1.59299 -2.6527177,1.708238 -0.609574,0.06604 -0.8295562,0.0429 -1.4181137,-0.149177 z"
     id="path4276-6"
     inkscape:connector-curvature="0" /><path
     style="opacity:1;fill:#880000;fill-opacity:1;stroke:#880000;stroke-width:0.13637851;stroke-linejoin:miter;stroke-miterlimit:4;stroke-dasharray:none;stroke-opacity:1"
     d="M 6.5310606,0.38744481 A 2.8850727,1.5570443 86.757804 0 0 5.3411036,2.0120817 L 0.8285606,16.527055 c -0.15978348,0.513954 0.0290463,1.011306 0.4234006,1.115263 0.3943557,0.103958 0.8404427,-0.226099 1.0002257,-0.740053 L 6.634567,2.8059504 A 0.33071221,0.22620033 87.777281 0 1 6.6354191,2.7976804 0.33071221,0.22620033 87.777281 0 1 6.8970199,2.547582 0.33071221,0.22620033 87.777281 0 1 7.0795383,2.8182807 L 7.679704,4.7189142 C 7.799733,5.0990244 8.1512023,5.2892577 8.4676948,5.1454599 8.7841865,5.0016617 8.9423475,4.5799477 8.8223186,4.1998386 L 8.2336947,2.335998 A 2.8850727,1.5570443 86.757804 0 0 7.9857093,1.5608963 c -9.656e-4,-0.00236 -0.00199,-0.00466 -0.00297,-0.007 A 2.8850727,1.5570443 86.757804 0 0 6.6862399,0.37420795 2.8850727,1.5570443 86.757804 0 0 6.5310606,0.38744481 Z"
     id="rect4152-9-7"
     inkscape:connector-curvature="0" /><path
     d="m 12.550288,18.961709 0.187412,-1.52044 -1.597598,-0.474792 c -0.05268,-0.50767 -0.188982,-0.992498 -0.39622,-1.44231 L 11.87299,14.28697 10.938064,13.08055 9.4719089,13.882823 C 9.0889029,13.571871 8.6551867,13.320276 8.1791555,13.144843 l -0.069593,-1.675685 -1.509736,-0.185877 -0.4744321,1.608704 c -0.5036695,0.05481 -0.9862726,0.193616 -1.4333121,0.40235 L 3.4645842,12.160422 2.2646472,13.103999 3.0595581,14.57808 C 2.7493735,14.963464 2.4993275,15.401449 2.3249374,15.881162 L 0.6598061,15.954251 0.47239438,17.47469 2.069993,17.949483 c 0.052684,0.50767 0.1889824,0.992498 0.3962194,1.44231 l -1.1291979,1.237933 0.9349251,1.206421 1.4669777,-0.80292 c 0.3821836,0.311598 0.8167218,0.562547 1.2921127,0.737154 l 0.069502,1.67642 1.5097366,0.185878 0.4745226,-1.609441 c 0.5035784,-0.05408 0.9860882,-0.19212 1.433221,-0.401613 l 1.2274078,1.134649 1.199937,-0.943577 -0.79482,-1.474817 c 0.310275,-0.386121 0.560321,-0.824106 0.73462,-1.303083 l 1.665131,-0.07309 z M 6.230224,20.49886 C 4.5627199,20.293559 3.3785805,18.765528 3.5855739,17.086225 3.7925673,15.406923 5.3123902,14.211801 6.9798709,14.4171 c 1.6674808,0.205298 2.8516438,1.733332 2.64465,3.412634 C 9.417528,19.509037 7.8977277,20.704162 6.230224,20.49886 Z"
     id="path3"
     inkscape:connector-curvature="0"
     style="fill:#000000;fill-opacity:1;stroke:#d9d8d7;stroke-width:0.20371932;stroke-miterlimit:4;stroke-dasharray:none;stroke-opacity:1" /><path
     style="opacity:1;fill:#1d1d1d;fill-opacity:1;stroke:none;stroke-width:0;stroke-linejoin:miter;stroke-miterlimit:4;stroke-dasharray:none;stroke-opacity:1"
     d="m 16.32025,20.626518 c -0.990869,-0.323366 -1.846792,-1.184746 -2.21398,-2.228095 -0.143186,-0.406857 -0.149756,-0.612008 -0.04658,-1.454296 0.115179,-0.94029 0.13632,-1.003268 0.513994,-1.531354 1.699266,-2.376031 5.244023,-1.797127 6.13912,1.002596 0.260605,0.815132 0.12407,1.940621 -0.321729,2.652087 -0.59855,0.955258 -1.588884,1.592991 -2.652716,1.708238 -0.609574,0.06604 -0.829556,0.0429 -1.418114,-0.149176 z"
     id="path4276"
     inkscape:connector-curvature="0" /><path
     style="opacity:1;fill:#880000;fill-opacity:1;stroke:#880000;stroke-width:0.13637851;stroke-linejoin:miter;stroke-miterlimit:4;stroke-dasharray:none;stroke-opacity:1"
     d="m 17.2102,0.40934601 c 0.539479,0.0978238 0.990873,0.71410749 1.189957,1.62463689 l 4.9071,15.9353751 c 0.158397,0.514383 -0.02905,1.011306 -0.423401,1.115264 C 22.4895,19.188579 22.04199,18.858962 21.88363,18.344569 L 17.106694,2.8278516 c -2.37e-4,-0.00276 -5.45e-4,-0.00552 -8.52e-4,-0.00827 -0.0238,-0.1756159 -0.14013,-0.2868276 -0.261601,-0.2500984 -0.09221,0.028075 -0.164766,0.1356846 -0.182518,0.2706987 L 16.061557,4.7408154 C 15.941528,5.1209256 15.590059,5.3111589 15.273566,5.1673611 14.957075,5.0235629 14.798913,4.6018489 14.918942,4.2217398 l 0.588624,-1.8638406 c 0.06172,-0.2772242 0.145336,-0.5385875 0.247986,-0.7751017 9.65e-4,-0.00236 0.002,-0.00466 0.003,-0.007 0.321321,-0.7369404 0.802314,-1.17459821 1.2965,-1.17969235 0.05201,-3.9118e-4 0.103797,0.004028 0.155179,0.0132369 z"
     id="rect4152-9-7-8"
     inkscape:connector-curvature="0"
     sodipodi:nodetypes="ccsssccccsscccccc" /><path
     style="opacity:1;fill:url(#radialGradient4306);fill-opacity:1;stroke:none;stroke-width:0;stroke-linejoin:miter;stroke-miterlimit:4;stroke-dasharray:none;stroke-opacity:1"
     d="m 15.926262,19.888467 c -0.855201,-0.476712 -1.506316,-1.4067 -1.605269,-2.292809 -0.08013,-0.71761 0.114847,-1.523528 0.503227,-2.079958 1.489446,-2.133924 4.572314,-1.620255 5.365499,0.894001 0.09416,0.298453 0.10263,0.56153 0.03631,1.127085 -0.07419,0.632732 -0.125577,0.800639 -0.360949,1.179464 -0.360993,0.581003 -0.992972,1.102964 -1.60478,1.325409 -0.65015,0.236385 -1.766611,0.163107 -2.334042,-0.153192 z"
     id="path4274"
     inkscape:connector-curvature="0" /><path
     d="m 23.117831,19.601979 0.385301,-1.482537 -1.52087,-0.683337 c 0.01443,-0.510352 -0.057,-1.009183 -0.203324,-1.482737 l 1.281325,-1.076396 -0.768136,-1.320544 -1.558243,0.60033 c -0.338737,-0.359267 -0.735517,-0.666432 -1.184228,-0.903715 l 0.150992,-1.670657 -1.471724,-0.385193 -0.681318,1.531854 c -0.506323,-0.01268 -1.002794,0.06072 -1.473202,0.208187 l -1.067588,-1.287587 -1.312974,0.775855 0.59425,1.56729 c -0.357975,0.340822 -0.663257,0.741799 -0.899044,1.194214 l -1.65971,-0.149114 -0.385301,1.482536 1.520871,0.683338 c -0.01443,0.510352 0.057,1.009182 0.203323,1.482736 L 11.78672,19.763617 12.554856,21.08416 14.114,20.4833 c 0.337836,0.359798 0.735515,0.666431 1.183699,0.902809 l -0.151177,1.671375 1.471724,0.385194 0.681504,-1.532573 c 0.506137,0.0134 1.002416,-0.05926 1.473016,-0.207468 l 1.0674,1.288306 1.312975,-0.775856 -0.594063,-1.568008 c 0.358161,-0.34154 0.663443,-0.742517 0.899043,-1.194216 l 1.65971,0.149116 z m -6.464846,0.683029 c -1.62552,-0.425446 -2.598407,-2.098022 -2.172849,-3.735461 0.425558,-1.637438 2.088552,-2.620126 3.71405,-2.194685 1.625496,0.425441 2.598406,2.098023 2.172848,3.735461 -0.425559,1.637438 -2.088531,2.620132 -3.714049,2.194685 z"
     id="path3-8"
     inkscape:connector-curvature="0"
     style="fill:#000000;fill-opacity:1;stroke:#d9d8d7;stroke-width:0.20371932;stroke-miterlimit:4;stroke-dasharray:none;stroke-opacity:1" /><path
     style="opacity:1;fill:url(#radialGradient4306-2);fill-opacity:1;stroke:none;stroke-width:0;stroke-linejoin:miter;stroke-miterlimit:4;stroke-dasharray:none;stroke-opacity:1"
     d="M 5.2586847,20.131745 C 4.4034829,19.655034 3.7523682,18.725044 3.6534155,17.838936 3.5732782,17.121327 3.7682633,16.315409 4.1566421,15.75898 c 1.4894458,-2.133926 4.5723175,-1.620257 5.3654992,0.894 0.094156,0.298453 0.1026312,0.561528 0.036317,1.127085 -0.074191,0.63273 -0.1255793,0.800637 -0.3609506,1.179463 -0.3609921,0.581002 -0.9929726,1.102964 -1.6047812,1.32541 -0.6501491,0.236385 -1.7666099,0.163108 -2.3340408,-0.153193 z"
     id="path4274-2"
     inkscape:connector-curvature="0" /></svg>