<?xml version="1.0" encoding="UTF-8" standalone="no"?>
<!-- Generator: Adobe Illustrator 16.0.0, SVG Export Plug-In . SVG Version: 6.00 Build 0)  -->

<svg
   xmlns:dc="http://purl.org/dc/elements/1.1/"
   xmlns:cc="http://creativecommons.org/ns#"
   xmlns:rdf="http://www.w3.org/1999/02/22-rdf-syntax-ns#"
   xmlns:svg="http://www.w3.org/2000/svg"
   xmlns="http://www.w3.org/2000/svg"
   xmlns:sodipodi="http://sodipodi.sourceforge.net/DTD/sodipodi-0.dtd"
   xmlns:inkscape="http://www.inkscape.org/namespaces/inkscape"
   version="1.1"
   id="Layer_1"
   x="0px"
   y="0px"
   width="16"
   height="16"
   viewBox="0 0 16 16"
   enable-background="new 0 0 512 512"
   xml:space="preserve"
   inkscape:version="0.91 r13725"
   sodipodi:docname="raysession16.svg"
   inkscape:export-filename="/home/houston/Images/raysession/icone app/16/raysession.png"
   inkscape:export-xdpi="90"
   inkscape:export-ydpi="90"><metadata
     id="metadata9"><rdf:RDF><cc:Work
         rdf:about=""><dc:format>image/svg+xml</dc:format><dc:type
           rdf:resource="http://purl.org/dc/dcmitype/StillImage" /><dc:title></dc:title></cc:Work></rdf:RDF></metadata><defs
     id="defs7"><filter
       style="color-interpolation-filters:sRGB"
       inkscape:label="Film Grain"
       id="filter4830"
       inkscape:menu="Image Effects"
       inkscape:menu-tooltip="Adds a small scale graininess"><feFlood
         flood-opacity="0.498039"
         flood-color="rgb(0,0,0)"
         result="flood"
         id="feFlood4832" /><feComposite
         in="flood"
         in2="SourceGraphic"
         operator="in"
         result="composite1"
         id="feComposite4834" /><feGaussianBlur
         in="composite1"
         stdDeviation="3"
         result="blur"
         id="feGaussianBlur4836" /><feOffset
         dx="6"
         dy="6"
         result="offset"
         id="feOffset4838" /><feComposite
         in="SourceGraphic"
         in2="offset"
         operator="over"
         result="fbSourceGraphic"
         id="feComposite4840" /><feColorMatrix
         result="fbSourceGraphicAlpha"
         in="fbSourceGraphic"
         values="0 0 0 -1 0 0 0 0 -1 0 0 0 0 -1 0 0 0 0 1 0"
         id="feColorMatrix4886" /><feTurbulence
         id="feTurbulence4888"
         type="fractalNoise"
         numOctaves="3"
         baseFrequency="1"
         seed="0"
         result="result0" /><feColorMatrix
         id="feColorMatrix4890"
         result="result4"
         values="0"
         type="saturate" /><feComposite
         in2="result4"
         id="feComposite4892"
         in="fbSourceGraphic"
         operator="arithmetic"
         k1="1.25"
         k2="0.5"
         k3="0.5"
         result="result2"
         k4="0" /><feBlend
         in2="fbSourceGraphic"
         id="feBlend4894"
         result="result5"
         mode="normal"
         in="result2" /><feComposite
         in2="fbSourceGraphic"
         id="feComposite4896"
         in="result5"
         operator="in"
         result="result3" /></filter><filter
       style="color-interpolation-filters:sRGB"
       inkscape:label="Film Grain"
       id="filter4842"
       inkscape:menu="Image Effects"
       inkscape:menu-tooltip="Adds a small scale graininess"><feFlood
         flood-opacity="0.498039"
         flood-color="rgb(0,0,0)"
         result="flood"
         id="feFlood4844" /><feComposite
         in="flood"
         in2="SourceGraphic"
         operator="in"
         result="composite1"
         id="feComposite4846" /><feGaussianBlur
         in="composite1"
         stdDeviation="3"
         result="blur"
         id="feGaussianBlur4848" /><feOffset
         dx="6"
         dy="6"
         result="offset"
         id="feOffset4850" /><feComposite
         in="SourceGraphic"
         in2="offset"
         operator="over"
         result="fbSourceGraphic"
         id="feComposite4852" /><feColorMatrix
         result="fbSourceGraphicAlpha"
         in="fbSourceGraphic"
         values="0 0 0 -1 0 0 0 0 -1 0 0 0 0 -1 0 0 0 0 1 0"
         id="feColorMatrix4898" /><feTurbulence
         id="feTurbulence4900"
         type="fractalNoise"
         numOctaves="3"
         baseFrequency="1"
         seed="0"
         result="result0" /><feColorMatrix
         id="feColorMatrix4902"
         result="result4"
         values="0"
         type="saturate" /><feComposite
         in2="result4"
         id="feComposite4904"
         in="fbSourceGraphic"
         operator="arithmetic"
         k1="1.25"
         k2="0.5"
         k3="0.5"
         result="result2"
         k4="0" /><feBlend
         in2="fbSourceGraphic"
         id="feBlend4906"
         result="result5"
         mode="normal"
         in="result2" /><feComposite
         in2="fbSourceGraphic"
         id="feComposite4908"
         in="result5"
         operator="in"
         result="result3" /></filter><filter
       style="color-interpolation-filters:sRGB"
       inkscape:label="Film Grain"
       id="filter4854"
       inkscape:menu="Image Effects"
       inkscape:menu-tooltip="Adds a small scale graininess"><feFlood
         flood-opacity="0.498039"
         flood-color="rgb(0,0,0)"
         result="flood"
         id="feFlood4856" /><feComposite
         in="flood"
         in2="SourceGraphic"
         operator="in"
         result="composite1"
         id="feComposite4858" /><feGaussianBlur
         in="composite1"
         stdDeviation="3"
         result="blur"
         id="feGaussianBlur4860" /><feOffset
         dx="6"
         dy="6"
         result="offset"
         id="feOffset4862" /><feComposite
         in="SourceGraphic"
         in2="offset"
         operator="over"
         result="fbSourceGraphic"
         id="feComposite4864" /><feColorMatrix
         result="fbSourceGraphicAlpha"
         in="fbSourceGraphic"
         values="0 0 0 -1 0 0 0 0 -1 0 0 0 0 -1 0 0 0 0 1 0"
         id="feColorMatrix4910" /><feTurbulence
         id="feTurbulence4912"
         type="fractalNoise"
         numOctaves="3"
         baseFrequency="1"
         seed="0"
         result="result0" /><feColorMatrix
         id="feColorMatrix4914"
         result="result4"
         values="0"
         type="saturate" /><feComposite
         in2="result4"
         id="feComposite4916"
         in="fbSourceGraphic"
         operator="arithmetic"
         k1="1.25"
         k2="0.5"
         k3="0.5"
         result="result2"
         k4="0" /><feBlend
         in2="fbSourceGraphic"
         id="feBlend4918"
         result="result5"
         mode="normal"
         in="result2" /><feComposite
         in2="fbSourceGraphic"
         id="feComposite4920"
         in="result5"
         operator="in"
         result="result3" /></filter><filter
       style="color-interpolation-filters:sRGB"
       inkscape:label="Film Grain"
       id="filter4866"
       inkscape:menu="Image Effects"
       inkscape:menu-tooltip="Adds a small scale graininess"><feFlood
         flood-opacity="0.498039"
         flood-color="rgb(0,0,0)"
         result="flood"
         id="feFlood4868" /><feComposite
         in="flood"
         in2="SourceGraphic"
         operator="in"
         result="composite1"
         id="feComposite4870" /><feGaussianBlur
         in="composite1"
         stdDeviation="3"
         result="blur"
         id="feGaussianBlur4872" /><feOffset
         dx="6"
         dy="6"
         result="offset"
         id="feOffset4874" /><feComposite
         in="SourceGraphic"
         in2="offset"
         operator="over"
         result="fbSourceGraphic"
         id="feComposite4876" /><feColorMatrix
         result="fbSourceGraphicAlpha"
         in="fbSourceGraphic"
         values="0 0 0 -1 0 0 0 0 -1 0 0 0 0 -1 0 0 0 0 1 0"
         id="feColorMatrix4922" /><feTurbulence
         id="feTurbulence4924"
         type="fractalNoise"
         numOctaves="3"
         baseFrequency="1"
         seed="0"
         result="result0" /><feColorMatrix
         id="feColorMatrix4926"
         result="result4"
         values="0"
         type="saturate" /><feComposite
         in2="result4"
         id="feComposite4928"
         in="fbSourceGraphic"
         operator="arithmetic"
         k1="1.25"
         k2="0.5"
         k3="0.5"
         result="result2"
         k4="0" /><feBlend
         in2="fbSourceGraphic"
         id="feBlend4930"
         result="result5"
         mode="normal"
         in="result2" /><feComposite
         in2="fbSourceGraphic"
         id="feComposite4932"
         in="result5"
         operator="in"
         result="result3" /></filter><filter
       style="color-interpolation-filters:sRGB"
       inkscape:label="Film Grain"
       id="filter4842-9"
       inkscape:menu="Image Effects"
       inkscape:menu-tooltip="Adds a small scale graininess"><feFlood
         flood-opacity="0.498039"
         flood-color="rgb(0,0,0)"
         result="flood"
         id="feFlood4844-2" /><feComposite
         in="flood"
         in2="SourceGraphic"
         operator="in"
         result="composite1"
         id="feComposite4846-5" /><feGaussianBlur
         in="composite1"
         stdDeviation="3"
         result="blur"
         id="feGaussianBlur4848-7" /><feOffset
         dx="6"
         dy="6"
         result="offset"
         id="feOffset4850-4" /><feComposite
         in="SourceGraphic"
         in2="offset"
         operator="over"
         result="fbSourceGraphic"
         id="feComposite4852-9" /><feColorMatrix
         result="fbSourceGraphicAlpha"
         in="fbSourceGraphic"
         values="0 0 0 -1 0 0 0 0 -1 0 0 0 0 -1 0 0 0 0 1 0"
         id="feColorMatrix4898-9" /><feTurbulence
         id="feTurbulence4900-4"
         type="fractalNoise"
         numOctaves="3"
         baseFrequency="1"
         seed="0"
         result="result0" /><feColorMatrix
         id="feColorMatrix4902-5"
         result="result4"
         values="0"
         type="saturate" /><feComposite
         k4="0"
         in2="result4"
         id="feComposite4904-9"
         in="fbSourceGraphic"
         operator="arithmetic"
         k1="1.25"
         k2="0.5"
         k3="0.5"
         result="result2" /><feBlend
         in2="fbSourceGraphic"
         id="feBlend4906-3"
         result="result5"
         mode="normal"
         in="result2" /><feComposite
         in2="fbSourceGraphic"
         id="feComposite4908-5"
         in="result5"
         operator="in"
         result="result3" /></filter><filter
       style="color-interpolation-filters:sRGB"
       inkscape:label="Film Grain"
       id="filter4842-9-8"
       inkscape:menu="Image Effects"
       inkscape:menu-tooltip="Adds a small scale graininess"><feFlood
         flood-opacity="0.498039"
         flood-color="rgb(0,0,0)"
         result="flood"
         id="feFlood4844-2-9" /><feComposite
         in="flood"
         in2="SourceGraphic"
         operator="in"
         result="composite1"
         id="feComposite4846-5-6" /><feGaussianBlur
         in="composite1"
         stdDeviation="3"
         result="blur"
         id="feGaussianBlur4848-7-4" /><feOffset
         dx="6"
         dy="6"
         result="offset"
         id="feOffset4850-4-3" /><feComposite
         in="SourceGraphic"
         in2="offset"
         operator="over"
         result="fbSourceGraphic"
         id="feComposite4852-9-3" /><feColorMatrix
         result="fbSourceGraphicAlpha"
         in="fbSourceGraphic"
         values="0 0 0 -1 0 0 0 0 -1 0 0 0 0 -1 0 0 0 0 1 0"
         id="feColorMatrix4898-9-3" /><feTurbulence
         id="feTurbulence4900-4-8"
         type="fractalNoise"
         numOctaves="3"
         baseFrequency="1"
         seed="0"
         result="result0" /><feColorMatrix
         id="feColorMatrix4902-5-6"
         result="result4"
         values="0"
         type="saturate" /><feComposite
         k4="0"
         in2="result4"
         id="feComposite4904-9-0"
         in="fbSourceGraphic"
         operator="arithmetic"
         k1="1.25"
         k2="0.5"
         k3="0.5"
         result="result2" /><feBlend
         in2="fbSourceGraphic"
         id="feBlend4906-3-4"
         result="result5"
         mode="normal"
         in="result2" /><feComposite
         in2="fbSourceGraphic"
         id="feComposite4908-5-8"
         in="result5"
         operator="in"
         result="result3" /></filter></defs><sodipodi:namedview
     pagecolor="#ffffff"
     bordercolor="#666666"
     borderopacity="1"
     objecttolerance="10"
     gridtolerance="10"
     guidetolerance="10"
     inkscape:pageopacity="0"
     inkscape:pageshadow="2"
     inkscape:window-width="1636"
     inkscape:window-height="1021"
     id="namedview5"
     showgrid="false"
     inkscape:zoom="13.40625"
     inkscape:cx="1.7895697"
     inkscape:cy="19.25687"
     inkscape:window-x="44"
     inkscape:window-y="0"
     inkscape:window-maximized="1"
     inkscape:current-layer="Layer_1" /><path
     style="opacity:1;fill:#1d1d1d;fill-opacity:1;stroke:none;stroke-width:0;stroke-linejoin:miter;stroke-miterlimit:4;stroke-dasharray:none;stroke-opacity:1"
     d="M 3.7036265,13.798316 C 3.0497546,13.584928 2.4849348,13.016506 2.2426279,12.328003 2.1481406,12.05952 2.1438049,11.924142 2.2118918,11.368319 c 0.076007,-0.620497 0.089958,-0.662054 0.3391831,-1.010536 1.1213397,-1.5679353 3.4605157,-1.1859191 4.0511863,0.66161 0.1719719,0.537901 0.081875,1.28061 -0.2123068,1.750104 -0.3949829,0.63037 -1.0485,1.051209 -1.7505201,1.127261 -0.402256,0.04358 -0.5474215,0.02831 -0.9358088,-0.09844 z"
     id="path4276-6"
     inkscape:connector-curvature="0" /><path
     style="opacity:1;fill:#880000;fill-opacity:1;stroke:#880000;stroke-width:0.08999575;stroke-linejoin:miter;stroke-miterlimit:4;stroke-dasharray:none;stroke-opacity:1"
     d="M 4.3963057,0.3311945 A 1.9038504,1.0274887 86.757804 0 0 3.6110568,1.4032873 L 0.63324388,10.981673 c -0.10544062,0.339156 0.0191676,0.667357 0.27940073,0.735958 0.26023409,0.0686 0.55460549,-0.149202 0.66004579,-0.488358 L 4.4646093,1.9271588 a 0.21823595,0.14926889 87.777281 0 1 5.623e-4,-0.00546 0.21823595,0.14926889 87.777281 0 1 0.1726295,-0.1650391 0.21823595,0.14926889 87.777281 0 1 0.1204433,0.1786332 L 5.1542919,3.1895176 C 5.2334987,3.4403511 5.4654322,3.5658855 5.6742846,3.4709937 5.8831364,3.3761018 5.9875064,3.097814 5.9082997,2.8469812 L 5.5198686,1.6170386 A 1.9038504,1.0274887 86.757804 0 0 5.3562238,1.1055515 c -6.371e-4,-0.00156 -0.00131,-0.00308 -0.00196,-0.00462 A 1.9038504,1.0274887 86.757804 0 0 4.4987081,0.32245958 1.9038504,1.0274887 86.757804 0 0 4.3963057,0.3311945 Z"
     id="rect4152-9-7"
     inkscape:connector-curvature="0" /><path
     d="M 8.368375,12.588293 8.4920476,11.58496 7.4377977,11.271646 C 7.4030343,10.936636 7.3130891,10.6167 7.1763334,10.31987 L 7.9214282,9.5034476 7.3044735,8.7073348 6.3369623,9.2367523 C 6.0842178,9.031556 5.7980099,8.8655293 5.4838784,8.7497616 L 5.4379542,7.6439823 4.4416841,7.5213226 4.1286079,8.5829014 C 3.796238,8.6190703 3.4777697,8.710668 3.1827697,8.8484109 L 2.3727476,8.1001452 1.5809129,8.7228088 2.1054721,9.6955502 C 1.9007823,9.9498639 1.7357777,10.238889 1.6206982,10.55545 l -1.09881489,0.04823 -0.1236724,1.003333 1.05425029,0.313314 c 0.034766,0.33501 0.1247089,0.654947 0.2614639,0.951776 l -0.74515408,0.816908 0.61695408,0.796114 0.968054,-0.529845 c 0.2522018,0.205623 0.5389522,0.371223 0.8526611,0.486446 l 0.045864,1.106264 0.9962704,0.122661 0.313136,-1.062065 c 0.3323098,-0.03569 0.6507165,-0.12678 0.9457781,-0.265024 L 6.5174512,15.092314 7.3092859,14.46965 6.7847867,13.496423 c 0.2047495,-0.2548 0.369754,-0.543825 0.4847734,-0.8599 l 1.0988147,-0.04823 z M 4.1977846,13.602654 C 3.0974039,13.467177 2.315994,12.458834 2.4525883,11.350667 2.5891826,10.242501 3.592109,9.4538438 4.6924742,9.58932 c 1.1003654,0.1354755 1.8817908,1.14382 1.7451963,2.251986 -0.136594,1.108167 -1.1395054,1.896826 -2.2398859,1.761348 z"
     id="path3"
     inkscape:connector-curvature="0"
     style="fill:#000000;fill-opacity:1;stroke:#d9d8d7;stroke-width:0.434;stroke-miterlimit:4;stroke-dasharray:none;stroke-opacity:1" /><path
     style="opacity:1;fill:#1d1d1d;fill-opacity:1;stroke:none;stroke-width:0;stroke-linejoin:miter;stroke-miterlimit:4;stroke-dasharray:none;stroke-opacity:1"
     d="m 10.856161,13.686895 c -0.653872,-0.213388 -1.2186921,-0.78181 -1.4609983,-1.470312 -0.094488,-0.268484 -0.098823,-0.403863 -0.030738,-0.959686 0.076006,-0.620494 0.089957,-0.662053 0.339183,-1.010536 1.1213403,-1.5679349 3.4605143,-1.185918 4.0511853,0.66161 0.171973,0.537903 0.08187,1.28061 -0.212308,1.750104 -0.394981,0.630372 -1.048499,1.05121 -1.750518,1.127261 -0.402256,0.04358 -0.547422,0.02831 -0.935809,-0.09844 z"
     id="path4276"
     inkscape:connector-curvature="0" /><path
     style="opacity:1;fill:#880000;fill-opacity:1;stroke:#880000;stroke-width:0.08999575;stroke-linejoin:miter;stroke-miterlimit:4;stroke-dasharray:none;stroke-opacity:1"
     d="m 11.443436,0.34564703 c 0.356001,0.0645537 0.653874,0.4712373 0.785249,1.07209277 l 3.23818,10.5157042 c 0.104526,0.33944 -0.01917,0.667358 -0.279401,0.735959 -0.260234,0.0686 -0.555545,-0.148912 -0.660046,-0.488359 L 11.375133,1.9416113 c -1.57e-4,-0.00182 -3.6e-4,-0.00364 -5.62e-4,-0.00546 -0.01571,-0.1158883 -0.09247,-0.1892766 -0.17263,-0.1650391 -0.06085,0.018527 -0.108729,0.089538 -0.120443,0.1786332 L 10.68545,3.2039701 C 10.606243,3.4548036 10.37431,3.580338 10.165457,3.4854463 9.9566062,3.3905543 9.8522356,3.1122666 9.9314424,2.8614337 L 10.319873,1.6314912 c 0.04073,-0.1829394 0.09591,-0.3554122 0.163645,-0.5114872 6.37e-4,-0.00156 0.0013,-0.00308 0.002,-0.00462 0.212039,-0.48630464 0.529445,-0.77511365 0.855556,-0.77847523 0.03432,-2.5815e-4 0.0685,0.002659 0.102403,0.008735 z"
     id="rect4152-9-7-8"
     inkscape:connector-curvature="0"
     sodipodi:nodetypes="ccsssccccsscccccc" /><path
     d="m 15.341863,13.010805 0.254259,-0.978321 -1.003617,-0.450932 c 0.0095,-0.33678 -0.03761,-0.665957 -0.134173,-0.978454 l 0.845542,-0.7103099 -0.50689,-0.8714229 -1.02828,0.3961559 C 13.545173,9.1804419 13.283339,8.9777447 12.987236,8.8211624 l 0.09964,-1.1024613 -0.971186,-0.2541877 -0.4496,1.0108657 c -0.334121,-0.00837 -0.66174,0.040069 -0.972161,0.1373819 L 9.9894303,7.7630864 9.1230027,8.2750707 9.5151464,9.3093205 C 9.2789199,9.5342278 9.0774652,9.7988313 8.9218701,10.097379 l -1.0952374,-0.0984 -0.2542589,0.978321 1.003618,0.450932 c -0.00952,0.33678 0.037614,0.665956 0.1341722,0.978453 l -0.8456651,0.710785 0.5068905,0.871422 1.0288743,-0.396506 c 0.2229369,0.23743 0.485364,0.439776 0.7811193,0.595761 l -0.09976,1.102935 0.971186,0.254189 0.449723,-1.011341 c 0.333998,0.0088 0.661491,-0.0391 0.972038,-0.136907 l 0.704374,0.850149 0.866428,-0.511985 -0.39202,-1.034723 c 0.236349,-0.225382 0.437804,-0.489985 0.593276,-0.78806 l 1.095237,0.0984 z m -4.266131,0.450729 C 10.003056,13.180784 9.3610513,12.077056 9.6418757,10.996515 9.9227001,9.9159749 11.020104,9.2675021 12.092765,9.5482493 c 1.07266,0.2807472 1.71468,1.3844787 1.433856,2.4650187 -0.280825,1.080541 -1.378215,1.729017 -2.450889,1.448266 z"
     id="path3-8"
     inkscape:connector-curvature="0"
     style="fill:#000000;fill-opacity:1;stroke:#d9d8d7;stroke-width:0.434;stroke-miterlimit:4;stroke-dasharray:none;stroke-opacity:1" /><ellipse
     style="opacity:1;fill:#000000;fill-opacity:1;fill-rule:evenodd;stroke:#000000;stroke-width:0.77258968;stroke-linecap:round;stroke-linejoin:round;stroke-miterlimit:4;stroke-dasharray:none;stroke-dashoffset:0;stroke-opacity:1"
     id="path5671"
     cx="11.729604"
     cy="11.543123"
     rx="2.2470231"
     ry="2.2843192" /><ellipse
     style="opacity:1;fill:#000000;fill-opacity:1;fill-rule:evenodd;stroke:#000000;stroke-width:0.77258968;stroke-linecap:round;stroke-linejoin:round;stroke-miterlimit:4;stroke-dasharray:none;stroke-dashoffset:0;stroke-opacity:1"
     id="path5671-7"
     cx="4.5874124"
     cy="11.524475"
     rx="2.2470231"
     ry="2.2843192" /></svg>