<?xml version="1.0" encoding="UTF-8" standalone="no"?>
<!-- Generator: Adobe Illustrator 16.0.0, SVG Export Plug-In . SVG Version: 6.00 Build 0)  -->

<svg
   xmlns:dc="http://purl.org/dc/elements/1.1/"
   xmlns:cc="http://creativecommons.org/ns#"
   xmlns:rdf="http://www.w3.org/1999/02/22-rdf-syntax-ns#"
   xmlns:svg="http://www.w3.org/2000/svg"
   xmlns="http://www.w3.org/2000/svg"
   xmlns:xlink="http://www.w3.org/1999/xlink"
   xmlns:sodipodi="http://sodipodi.sourceforge.net/DTD/sodipodi-0.dtd"
   xmlns:inkscape="http://www.inkscape.org/namespaces/inkscape"
   version="1.1"
   id="Layer_1"
   x="0px"
   y="0px"
   width="512px"
   height="512px"
   viewBox="0 0 512 512"
   enable-background="new 0 0 512 512"
   xml:space="preserve"
   inkscape:version="0.91 r13725"
   sodipodi:docname="raysession.svg"
   inkscape:export-filename="/home/houston/Images/raysession/icone app/raysession.png"
   inkscape:export-xdpi="90"
   inkscape:export-ydpi="90"><metadata
     id="metadata9"><rdf:RDF><cc:Work
         rdf:about=""><dc:format>image/svg+xml</dc:format><dc:type
           rdf:resource="http://purl.org/dc/dcmitype/StillImage" /><dc:title></dc:title></cc:Work></rdf:RDF></metadata><defs
     id="defs7"><linearGradient
       id="linearGradient4290"
       inkscape:collect="always"><stop
         id="stop4292"
         offset="0"
         style="stop-color:#000000;stop-opacity:1" /><stop
         id="stop4294"
         offset="1"
         style="stop-color:#915126;stop-opacity:1" /></linearGradient><linearGradient
       inkscape:collect="always"
       id="linearGradient4193"><stop
         style="stop-color:#b10000;stop-opacity:1;"
         offset="0"
         id="stop4195" /><stop
         style="stop-color:#3d0000;stop-opacity:1"
         offset="1"
         id="stop4197" /></linearGradient><linearGradient
       inkscape:collect="always"
       id="linearGradient4298"><stop
         style="stop-color:#515151;stop-opacity:1;"
         offset="0"
         id="stop4300" /><stop
         style="stop-color:#515151;stop-opacity:0;"
         offset="1"
         id="stop4302" /></linearGradient><radialGradient
       inkscape:collect="always"
       xlink:href="#linearGradient4298"
       id="radialGradient4306"
       cx="146.24127"
       cy="330.64374"
       fx="146.24127"
       fy="330.64374"
       r="55.55122"
       gradientTransform="matrix(1.1340516,0.1396233,-0.14138992,1.1470733,250.25268,-35.283427)"
       gradientUnits="userSpaceOnUse" /><radialGradient
       inkscape:collect="always"
       xlink:href="#linearGradient4298"
       id="radialGradient4306-2"
       cx="146.24127"
       cy="330.64374"
       fx="146.24127"
       fy="330.64374"
       r="55.55122"
       gradientTransform="matrix(1.1340516,0.1396233,-0.14138992,1.1470733,22.084732,-30.079958)"
       gradientUnits="userSpaceOnUse" /><filter
       style="color-interpolation-filters:sRGB;"
       inkscape:label="Film Grain"
       id="filter4830"
       inkscape:menu="Image Effects"
       inkscape:menu-tooltip="Adds a small scale graininess"><feFlood
         flood-opacity="0.498039"
         flood-color="rgb(0,0,0)"
         result="flood"
         id="feFlood4832" /><feComposite
         in="flood"
         in2="SourceGraphic"
         operator="in"
         result="composite1"
         id="feComposite4834" /><feGaussianBlur
         in="composite1"
         stdDeviation="3"
         result="blur"
         id="feGaussianBlur4836" /><feOffset
         dx="6"
         dy="6"
         result="offset"
         id="feOffset4838" /><feComposite
         in="SourceGraphic"
         in2="offset"
         operator="over"
         result="fbSourceGraphic"
         id="feComposite4840" /><feColorMatrix
         result="fbSourceGraphicAlpha"
         in="fbSourceGraphic"
         values="0 0 0 -1 0 0 0 0 -1 0 0 0 0 -1 0 0 0 0 1 0"
         id="feColorMatrix4886" /><feTurbulence
         id="feTurbulence4888"
         type="fractalNoise"
         numOctaves="3"
         baseFrequency="1"
         seed="0"
         result="result0"
         in="fbSourceGraphic" /><feColorMatrix
         id="feColorMatrix4890"
         result="result4"
         values="0"
         type="saturate" /><feComposite
         in2="result4"
         id="feComposite4892"
         in="fbSourceGraphic"
         operator="arithmetic"
         k1="1.25"
         k2="0.5"
         k3="0.5"
         result="result2" /><feBlend
         in2="fbSourceGraphic"
         id="feBlend4894"
         result="result5"
         mode="normal"
         in="result2" /><feComposite
         in2="fbSourceGraphic"
         id="feComposite4896"
         in="result5"
         operator="in"
         result="result3" /></filter><filter
       style="color-interpolation-filters:sRGB;"
       inkscape:label="Film Grain"
       id="filter4842"
       inkscape:menu="Image Effects"
       inkscape:menu-tooltip="Adds a small scale graininess"><feFlood
         flood-opacity="0.498039"
         flood-color="rgb(0,0,0)"
         result="flood"
         id="feFlood4844" /><feComposite
         in="flood"
         in2="SourceGraphic"
         operator="in"
         result="composite1"
         id="feComposite4846" /><feGaussianBlur
         in="composite1"
         stdDeviation="3"
         result="blur"
         id="feGaussianBlur4848" /><feOffset
         dx="6"
         dy="6"
         result="offset"
         id="feOffset4850" /><feComposite
         in="SourceGraphic"
         in2="offset"
         operator="over"
         result="fbSourceGraphic"
         id="feComposite4852" /><feColorMatrix
         result="fbSourceGraphicAlpha"
         in="fbSourceGraphic"
         values="0 0 0 -1 0 0 0 0 -1 0 0 0 0 -1 0 0 0 0 1 0"
         id="feColorMatrix4898" /><feTurbulence
         id="feTurbulence4900"
         type="fractalNoise"
         numOctaves="3"
         baseFrequency="1"
         seed="0"
         result="result0"
         in="fbSourceGraphic" /><feColorMatrix
         id="feColorMatrix4902"
         result="result4"
         values="0"
         type="saturate" /><feComposite
         in2="result4"
         id="feComposite4904"
         in="fbSourceGraphic"
         operator="arithmetic"
         k1="1.25"
         k2="0.5"
         k3="0.5"
         result="result2" /><feBlend
         in2="fbSourceGraphic"
         id="feBlend4906"
         result="result5"
         mode="normal"
         in="result2" /><feComposite
         in2="fbSourceGraphic"
         id="feComposite4908"
         in="result5"
         operator="in"
         result="result3" /></filter><filter
       style="color-interpolation-filters:sRGB;"
       inkscape:label="Film Grain"
       id="filter4854"
       inkscape:menu="Image Effects"
       inkscape:menu-tooltip="Adds a small scale graininess"><feFlood
         flood-opacity="0.498039"
         flood-color="rgb(0,0,0)"
         result="flood"
         id="feFlood4856" /><feComposite
         in="flood"
         in2="SourceGraphic"
         operator="in"
         result="composite1"
         id="feComposite4858" /><feGaussianBlur
         in="composite1"
         stdDeviation="3"
         result="blur"
         id="feGaussianBlur4860" /><feOffset
         dx="6"
         dy="6"
         result="offset"
         id="feOffset4862" /><feComposite
         in="SourceGraphic"
         in2="offset"
         operator="over"
         result="fbSourceGraphic"
         id="feComposite4864" /><feColorMatrix
         result="fbSourceGraphicAlpha"
         in="fbSourceGraphic"
         values="0 0 0 -1 0 0 0 0 -1 0 0 0 0 -1 0 0 0 0 1 0"
         id="feColorMatrix4910" /><feTurbulence
         id="feTurbulence4912"
         type="fractalNoise"
         numOctaves="3"
         baseFrequency="1"
         seed="0"
         result="result0"
         in="fbSourceGraphic" /><feColorMatrix
         id="feColorMatrix4914"
         result="result4"
         values="0"
         type="saturate" /><feComposite
         in2="result4"
         id="feComposite4916"
         in="fbSourceGraphic"
         operator="arithmetic"
         k1="1.25"
         k2="0.5"
         k3="0.5"
         result="result2" /><feBlend
         in2="fbSourceGraphic"
         id="feBlend4918"
         result="result5"
         mode="normal"
         in="result2" /><feComposite
         in2="fbSourceGraphic"
         id="feComposite4920"
         in="result5"
         operator="in"
         result="result3" /></filter><filter
       style="color-interpolation-filters:sRGB;"
       inkscape:label="Film Grain"
       id="filter4866"
       inkscape:menu="Image Effects"
       inkscape:menu-tooltip="Adds a small scale graininess"><feFlood
         flood-opacity="0.498039"
         flood-color="rgb(0,0,0)"
         result="flood"
         id="feFlood4868" /><feComposite
         in="flood"
         in2="SourceGraphic"
         operator="in"
         result="composite1"
         id="feComposite4870" /><feGaussianBlur
         in="composite1"
         stdDeviation="3"
         result="blur"
         id="feGaussianBlur4872" /><feOffset
         dx="6"
         dy="6"
         result="offset"
         id="feOffset4874" /><feComposite
         in="SourceGraphic"
         in2="offset"
         operator="over"
         result="fbSourceGraphic"
         id="feComposite4876" /><feColorMatrix
         result="fbSourceGraphicAlpha"
         in="fbSourceGraphic"
         values="0 0 0 -1 0 0 0 0 -1 0 0 0 0 -1 0 0 0 0 1 0"
         id="feColorMatrix4922" /><feTurbulence
         id="feTurbulence4924"
         type="fractalNoise"
         numOctaves="3"
         baseFrequency="1"
         seed="0"
         result="result0"
         in="fbSourceGraphic" /><feColorMatrix
         id="feColorMatrix4926"
         result="result4"
         values="0"
         type="saturate" /><feComposite
         in2="result4"
         id="feComposite4928"
         in="fbSourceGraphic"
         operator="arithmetic"
         k1="1.25"
         k2="0.5"
         k3="0.5"
         result="result2" /><feBlend
         in2="fbSourceGraphic"
         id="feBlend4930"
         result="result5"
         mode="normal"
         in="result2" /><feComposite
         in2="fbSourceGraphic"
         id="feComposite4932"
         in="result5"
         operator="in"
         result="result3" /></filter><linearGradient
       inkscape:collect="always"
       xlink:href="#linearGradient4290"
       id="linearGradient4288"
       x1="154.66306"
       y1="334.55554"
       x2="169.83374"
       y2="238.45146"
       gradientUnits="userSpaceOnUse" /><linearGradient
       inkscape:collect="always"
       xlink:href="#linearGradient4290"
       id="linearGradient4296"
       x1="370.03525"
       y1="368.67032"
       x2="434.70578"
       y2="447.37991"
       gradientUnits="userSpaceOnUse" /><linearGradient
       inkscape:collect="always"
       xlink:href="#linearGradient4193"
       id="linearGradient4259-1"
       x1="484.84708"
       y1="380.79794"
       x2="282.4798"
       y2="12.623013"
       gradientUnits="userSpaceOnUse" /><filter
       style="color-interpolation-filters:sRGB"
       inkscape:label="Film Grain"
       id="filter4842-9"
       inkscape:menu="Image Effects"
       inkscape:menu-tooltip="Adds a small scale graininess"><feFlood
         flood-opacity="0.498039"
         flood-color="rgb(0,0,0)"
         result="flood"
         id="feFlood4844-2" /><feComposite
         in="flood"
         in2="SourceGraphic"
         operator="in"
         result="composite1"
         id="feComposite4846-5" /><feGaussianBlur
         in="composite1"
         stdDeviation="3"
         result="blur"
         id="feGaussianBlur4848-7" /><feOffset
         dx="6"
         dy="6"
         result="offset"
         id="feOffset4850-4" /><feComposite
         in="SourceGraphic"
         in2="offset"
         operator="over"
         result="fbSourceGraphic"
         id="feComposite4852-9" /><feColorMatrix
         result="fbSourceGraphicAlpha"
         in="fbSourceGraphic"
         values="0 0 0 -1 0 0 0 0 -1 0 0 0 0 -1 0 0 0 0 1 0"
         id="feColorMatrix4898-9" /><feTurbulence
         id="feTurbulence4900-4"
         type="fractalNoise"
         numOctaves="3"
         baseFrequency="1"
         seed="0"
         result="result0" /><feColorMatrix
         id="feColorMatrix4902-5"
         result="result4"
         values="0"
         type="saturate" /><feComposite
         k4="0"
         in2="result4"
         id="feComposite4904-9"
         in="fbSourceGraphic"
         operator="arithmetic"
         k1="1.25"
         k2="0.5"
         k3="0.5"
         result="result2" /><feBlend
         in2="fbSourceGraphic"
         id="feBlend4906-3"
         result="result5"
         mode="normal"
         in="result2" /><feComposite
         in2="fbSourceGraphic"
         id="feComposite4908-5"
         in="result5"
         operator="in"
         result="result3" /></filter><linearGradient
       inkscape:collect="always"
       xlink:href="#linearGradient4193"
       id="linearGradient4259-1-8"
       x1="484.84708"
       y1="380.79794"
       x2="282.4798"
       y2="12.623013"
       gradientUnits="userSpaceOnUse" /><filter
       style="color-interpolation-filters:sRGB"
       inkscape:label="Film Grain"
       id="filter4842-9-8"
       inkscape:menu="Image Effects"
       inkscape:menu-tooltip="Adds a small scale graininess"><feFlood
         flood-opacity="0.498039"
         flood-color="rgb(0,0,0)"
         result="flood"
         id="feFlood4844-2-9" /><feComposite
         in="flood"
         in2="SourceGraphic"
         operator="in"
         result="composite1"
         id="feComposite4846-5-6" /><feGaussianBlur
         in="composite1"
         stdDeviation="3"
         result="blur"
         id="feGaussianBlur4848-7-4" /><feOffset
         dx="6"
         dy="6"
         result="offset"
         id="feOffset4850-4-3" /><feComposite
         in="SourceGraphic"
         in2="offset"
         operator="over"
         result="fbSourceGraphic"
         id="feComposite4852-9-3" /><feColorMatrix
         result="fbSourceGraphicAlpha"
         in="fbSourceGraphic"
         values="0 0 0 -1 0 0 0 0 -1 0 0 0 0 -1 0 0 0 0 1 0"
         id="feColorMatrix4898-9-3" /><feTurbulence
         id="feTurbulence4900-4-8"
         type="fractalNoise"
         numOctaves="3"
         baseFrequency="1"
         seed="0"
         result="result0" /><feColorMatrix
         id="feColorMatrix4902-5-6"
         result="result4"
         values="0"
         type="saturate" /><feComposite
         k4="0"
         in2="result4"
         id="feComposite4904-9-0"
         in="fbSourceGraphic"
         operator="arithmetic"
         k1="1.25"
         k2="0.5"
         k3="0.5"
         result="result2" /><feBlend
         in2="fbSourceGraphic"
         id="feBlend4906-3-4"
         result="result5"
         mode="normal"
         in="result2" /><feComposite
         in2="fbSourceGraphic"
         id="feComposite4908-5-8"
         in="result5"
         operator="in"
         result="result3" /></filter></defs><sodipodi:namedview
     pagecolor="#ffffff"
     bordercolor="#666666"
     borderopacity="1"
     objecttolerance="10"
     gridtolerance="10"
     guidetolerance="10"
     inkscape:pageopacity="0"
     inkscape:pageshadow="2"
     inkscape:window-width="1636"
     inkscape:window-height="1021"
     id="namedview5"
     showgrid="false"
     inkscape:zoom="1.1849563"
     inkscape:cx="182.80195"
     inkscape:cy="238.46453"
     inkscape:window-x="44"
     inkscape:window-y="0"
     inkscape:window-maximized="1"
     inkscape:current-layer="Layer_1" /><path
     style="opacity:1;fill:#1d1d1d;fill-opacity:1;stroke:none;stroke-width:0;stroke-linejoin:miter;stroke-miterlimit:4;stroke-dasharray:none;stroke-opacity:1"
     d="M 116.98636,441.70949 C 95.792719,434.793 77.485485,416.36904 69.63171,394.05293 66.569141,385.3507 66.428598,380.96275 68.635471,362.94714 71.099059,342.83531 71.551249,341.48831 79.629246,330.1931 115.9747,279.37238 191.79327,291.7545 210.93841,351.63755 c 5.57404,17.43477 2.65374,41.5078 -6.88141,56.72529 -12.80238,20.43192 -33.98452,34.07233 -56.73876,36.53738 -13.03813,1.41249 -17.74331,0.91751 -30.33192,-3.19073 z"
     id="path4276-6"
     inkscape:connector-curvature="0" /><path
     style="opacity:1;fill:url(#linearGradient4259-1);fill-opacity:1;stroke:#000000;stroke-width:2.74828911;stroke-linejoin:miter;stroke-miterlimit:4;stroke-dasharray:none;stroke-opacity:1;filter:url(#filter4842-9)"
     d="M 344.75399,42.515709 A 33.428294,54.572829 2.0876841 0 1 371.4192,72.276658 L 478.30558,342.96868 c 3.78471,9.5848 0.0746,19.12937 -8.31888,21.40274 -8.39351,2.27337 -18.19709,-3.61252 -21.98179,-13.19732 L 344.20162,88.289699 a 4.8574484,6.254149 1.2972251 0 0 -0.024,-0.155576 4.8574484,6.254149 1.2972251 0 0 -5.78819,-4.519929 4.8574484,6.254149 1.2972251 0 0 -3.73109,5.257461 l -11.57119,36.379375 c -2.31416,7.27556 -9.72751,11.1453 -16.62063,8.67676 -6.8931,-2.46855 -10.57931,-10.31194 -8.26515,-17.58748 L 309.5502,80.665116 a 33.428294,54.572829 2.0876841 0 1 4.78822,-14.838491 c 0.0191,-0.04528 0.0394,-0.08954 0.0589,-0.134504 a 33.428294,54.572829 2.0876841 0 1 27.01644,-23.304786 33.428294,54.572829 2.0876841 0 1 3.34023,0.128374 z"
     id="rect4152-9-7"
     inkscape:connector-curvature="0"
     transform="matrix(-0.99507688,0.04130945,0.03635777,1.1305992,480.94879,-57.103643)" /><path
     d="m 268.12165,379.07398 2.63027,-30.78638 -32.31779,-8.40294 c -1.42812,-10.1952 -4.51256,-19.86882 -8.9907,-28.78472 l 21.68231,-25.76521 -19.59652,-23.63573 -28.747,17.24433 c -7.89301,-5.9882 -16.75702,-10.74282 -26.41166,-13.9312 l -2.62676,-33.72794 -30.34686,-2.64316 -8.30856,32.77549 c -10.0381,1.47319 -19.5928,4.62405 -28.38436,9.15858 L 81.306504,248.61489 57.990633,268.51303 74.982585,297.6467 c -5.922973,7.99545 -10.603824,17.00726 -13.74006,26.80492 l -33.265595,2.69075 -2.630268,30.78638 32.317794,8.40294 c 1.428124,10.1952 4.512564,19.86883 8.990698,28.78472 l -21.683569,25.78012 19.596506,23.63574 28.762976,-17.25797 c 7.877033,6.00184 16.757013,10.74282 26.398233,13.91502 l 2.62548,33.74284 30.34687,2.64316 8.30983,-32.7904 c 10.03682,-1.45828 19.59021,-4.59376 28.38308,-9.14367 l 25.39625,21.97513 23.31587,-19.89815 -16.99067,-29.14858 c 5.92424,-8.01036 10.60508,-17.02217 13.74005,-26.80492 l 33.26559,-2.69075 z m -125.33289,35.60698 c -33.51812,-2.91936 -58.338304,-32.856 -55.433214,-66.8591 2.905091,-34.00308 32.436634,-59.20579 65.954284,-56.28646 33.51765,2.91931 58.33831,32.856 55.43321,66.85908 -2.90508,34.00309 -32.43617,59.20585 -65.95428,56.28648 z"
     id="path3"
     inkscape:connector-curvature="0"
     style="stroke:#d9d8d7;stroke-width:4.09423304;stroke-miterlimit:4;stroke-dasharray:none;stroke-opacity:1;filter:url(#filter4854);fill-opacity:1;fill:url(#linearGradient4288)"
     transform="matrix(1.0674816,0.03871667,-0.03900327,1.0596374,-3.247171,-9.5721134)" /><path
     style="opacity:1;fill:#1d1d1d;fill-opacity:1;stroke:none;stroke-width:0;stroke-linejoin:miter;stroke-miterlimit:4;stroke-dasharray:none;stroke-opacity:1"
     d="m 348.81803,438.09806 c -21.19365,-6.9165 -39.50088,-25.34046 -47.35466,-47.65657 -3.06256,-8.70223 -3.2031,-13.09017 -0.99623,-31.1058 2.46358,-20.11182 2.91576,-21.45883 10.99378,-32.75404 36.34544,-50.82072 112.16401,-38.43859 131.30914,21.44445 5.57406,17.43478 2.65375,41.5078 -6.88141,56.7253 -12.80237,20.43193 -33.98451,34.07234 -56.73874,36.53737 -13.03814,1.41249 -17.74331,0.91753 -30.33193,-3.19072 z"
     id="path4276"
     inkscape:connector-curvature="0" /><path
     style="opacity:1;fill:url(#linearGradient4259-1-8);fill-opacity:1;stroke:#000000;stroke-width:2.74828911;stroke-linejoin:miter;stroke-miterlimit:4;stroke-dasharray:none;stroke-opacity:1;filter:url(#filter4842-9-8)"
     d="m 344.75399,42.515709 c 11.64802,1.425062 21.7631,12.714469 26.66521,29.760949 L 487.75567,369.49487 c 3.75525,9.59399 0.0746,19.12937 -8.31888,21.40274 -8.39351,2.27337 -18.22734,-3.60309 -21.98179,-13.19732 L 344.20162,88.289699 c -0.007,-0.052 -0.0155,-0.103858 -0.024,-0.155576 -0.6322,-3.29924 -3.20604,-5.309126 -5.78819,-4.519929 -1.96002,0.602745 -3.44322,2.692716 -3.73109,5.257461 l -11.57119,36.379375 c -2.31416,7.27556 -9.72751,11.1453 -16.62063,8.67676 -6.8931,-2.46855 -10.57931,-10.31194 -8.26515,-17.58748 L 309.5502,80.665116 c 1.13343,-5.286 2.74801,-10.289519 4.78822,-14.838491 0.0191,-0.04528 0.0394,-0.08954 0.0589,-0.134504 6.3888,-14.175027 16.41172,-22.820944 27.01644,-23.304786 1.1161,-0.04818 2.2309,-0.0053 3.34023,0.128374 z"
     id="rect4152-9-7-8"
     inkscape:connector-curvature="0"
     transform="matrix(0.99507688,0.04130945,-0.03635777,1.1305992,26.342138,-56.635197)"
     sodipodi:nodetypes="ccsssccccsscccccc" /><path
     style="opacity:1;fill:url(#radialGradient4306);fill-opacity:1;stroke:none;stroke-width:0;stroke-linejoin:miter;stroke-miterlimit:4;stroke-dasharray:none;stroke-opacity:1"
     d="m 340.39105,422.31192 c -18.29184,-10.19634 -32.21849,-30.08779 -34.33499,-49.04069 -1.71402,-15.34892 2.45648,-32.58661 10.76349,-44.48805 31.85764,-45.64233 97.79691,-34.65551 114.76224,19.12171 2.01385,6.38357 2.19515,12.01052 0.77671,24.10713 -1.58687,13.53344 -2.68596,17.12478 -7.72031,25.22744 -7.72122,12.42703 -21.23861,23.59122 -34.32453,28.34908 -13.90599,5.05603 -37.78589,3.48868 -49.92261,-3.27662 z"
     id="path4274"
     inkscape:connector-curvature="0" /><path
     d="m 480.05072,384.25451 6.61796,-30.16701 -30.93605,-12.66292 c -0.0871,-10.29833 -1.88386,-20.30166 -5.16061,-29.74069 l 24.84662,-22.63504 -16.3431,-26.05821 -30.73843,13.24085 c -7.04276,-6.99452 -15.2086,-12.89633 -24.36211,-17.35146 l 1.79085,-33.78787 -29.73304,-6.68881 -12.50497,31.37758 c -10.1409,0.11464 -20.02126,1.95722 -29.32556,5.27378 l -22.31088,-25.17493 -25.70129,16.5998 13.04536,31.15931 c -6.91208,7.13209 -12.72547,15.43827 -17.11036,24.73056 l -33.32078,-1.79243 -6.61796,30.16699 30.93605,12.66293 c 0.0872,10.29834 1.88386,20.30166 5.16061,29.74068 l -24.84982,22.64966 16.34309,26.05821 30.75606,-13.25221 c 7.02513,7.00589 15.20857,12.89632 24.35089,17.33361 l -1.79405,33.80246 29.73304,6.68882 12.50817,-31.3922 c 10.1377,-0.10001 20.01477,-1.92751 29.32236,-5.25915 l 22.30767,25.18955 25.7013,-16.59982 -13.04216,-31.17392 c 6.91529,-7.1467 12.72868,-15.45287 17.11036,-24.73057 l 33.32078,1.79245 z m -128.85909,18.49526 c -32.84015,-7.38779 -53.53962,-40.39265 -46.23019,-73.71164 7.30942,-33.31897 39.8623,-54.34407 72.702,-46.95638 32.83967,7.3877 53.5396,40.39265 46.23018,73.71163 -7.30943,33.31898 -39.86186,54.34418 -72.70199,46.95639 z"
     id="path3-8"
     inkscape:connector-curvature="0"
     style="stroke:#d9d8d7;stroke-width:4.09423304;stroke-miterlimit:4;stroke-dasharray:none;stroke-opacity:1;filter:url(#filter4866);fill-opacity:1.0;fill:url(#linearGradient4296)"
     transform="matrix(1.0674816,0.03871667,-0.03900327,1.0596374,-3.247171,-9.5721134)" /><path
     style="opacity:1;fill:url(#radialGradient4306-2);fill-opacity:1;stroke:none;stroke-width:0;stroke-linejoin:miter;stroke-miterlimit:4;stroke-dasharray:none;stroke-opacity:1"
     d="m 112.22309,427.51538 c -18.291838,-10.19633 -32.218487,-30.0878 -34.334978,-49.0407 -1.714039,-15.34892 2.456471,-32.58661 10.763484,-44.48803 31.857634,-45.64235 97.796914,-34.65554 114.762234,19.12171 2.01386,6.38356 2.19515,12.0105 0.77673,24.10712 -1.58688,13.53344 -2.68598,17.12477 -7.72033,25.22743 -7.72122,12.42703 -21.23861,23.59124 -34.32453,28.3491 -13.90599,5.05602 -37.78588,3.48869 -49.92261,-3.27663 z"
     id="path4274-2"
     inkscape:connector-curvature="0" /></svg>