<?xml version="1.0" encoding="UTF-8" standalone="no"?>
<!-- Created with Inkscape (http://www.inkscape.org/) -->

<svg
   xmlns:dc="http://purl.org/dc/elements/1.1/"
   xmlns:cc="http://creativecommons.org/ns#"
   xmlns:rdf="http://www.w3.org/1999/02/22-rdf-syntax-ns#"
   xmlns:svg="http://www.w3.org/2000/svg"
   xmlns="http://www.w3.org/2000/svg"
   xmlns:sodipodi="http://sodipodi.sourceforge.net/DTD/sodipodi-0.dtd"
   xmlns:inkscape="http://www.inkscape.org/namespaces/inkscape"
   width="512"
   height="512"
   viewBox="0 0 135.46666 135.46667"
   version="1.1"
   id="svg8"
   inkscape:version="0.92.4 (5da689c313, 2019-01-14)"
   sodipodi:docname="dessin.svg">
  <defs
     id="defs2">
    <clipPath
       clipPathUnits="userSpaceOnUse"
       id="clipPath940">
      <rect
         style="opacity:1;fill:#777777;fill-opacity:1;fill-rule:evenodd;stroke:#555555;stroke-width:3;stroke-linecap:round;stroke-linejoin:round;stroke-miterlimit:4;stroke-dasharray:none;stroke-opacity:1"
         id="rect942"
         width="177.46696"
         height="86.595329"
         x="-18.174328"
         y="139.31096" />
    </clipPath>
  </defs>
  <sodipodi:namedview
     id="base"
     pagecolor="#2d2d2d"
     bordercolor="#666666"
     borderopacity="1.0"
     inkscape:pageopacity="0"
     inkscape:pageshadow="2"
     inkscape:zoom="0.70710678"
     inkscape:cx="134.55258"
     inkscape:cy="57.669064"
     inkscape:document-units="mm"
     inkscape:current-layer="layer1"
     showgrid="false"
     units="px"
     inkscape:window-width="1628"
     inkscape:window-height="1017"
     inkscape:window-x="44"
     inkscape:window-y="0"
     inkscape:window-maximized="1"
     inkscape:snap-global="true" />
  <metadata
     id="metadata5">
    <rdf:RDF>
      <cc:Work
         rdf:about="">
        <dc:format>image/svg+xml</dc:format>
        <dc:type
           rdf:resource="http://purl.org/dc/dcmitype/StillImage" />
        <dc:title></dc:title>
      </cc:Work>
    </rdf:RDF>
  </metadata>
  <g
     inkscape:label="Calque 1"
     inkscape:groupmode="layer"
     id="layer1"
     transform="translate(0,-161.53332)">
    <rect
       style="opacity:1;fill:#4e2b10;fill-opacity:1;fill-rule:evenodd;stroke:#dddddd;stroke-width:2.04399991;stroke-linecap:round;stroke-linejoin:round;stroke-miterlimit:4;stroke-dasharray:none;stroke-opacity:1;"
       id="rect838-4-2"
       width="120.80582"
       height="120.80582"
       x="7.3304219"
       y="168.86374"
       ry="30.475254" />
    <path
       style="opacity:1;fill:#555555;fill-opacity:1;fill-rule:evenodd;stroke:#dddddd;stroke-width:7.72535419;stroke-linecap:round;stroke-linejoin:round;stroke-miterlimit:4;stroke-dasharray:none;stroke-opacity:1;"
       d="M 27.705078 256.28516 L 27.705078 369.11328 C 27.705078 432.92414 79.075856 484.29492 142.88672 484.29492 L 369.11328 484.29492 C 432.92414 484.29492 484.29492 432.92414 484.29492 369.11328 L 484.29492 256.28516 L 27.705078 256.28516 z "
       transform="matrix(0.26458333,0,0,0.26458333,0,161.53332)"
       id="rect838-4" />
    <path
       style="fill:none;fill-rule:evenodd;stroke:#dddddd;stroke-width:0;stroke-linecap:butt;stroke-linejoin:miter;stroke-miterlimit:4;stroke-dasharray:none;stroke-opacity:0"
       d="m 20.738929,283.96477 v -60.21181 c 0,0 -1.979246,-38.9632 14.616861,-46.13881 13.151201,-5.68615 30.789281,6.0103 30.929155,21.82025 0.08754,9.89497 -7.167004,21.32968 -18.77913,28.85161 -13.714851,8.884 -13.535452,25.87196 -7.465795,34.89491 5.225854,7.76858 18.304758,18.02419 32.261638,17.63585 11.350305,-0.31581 31.595072,-10.47412 35.229522,-18.18934 8.0918,-17.17732 -0.36118,-30.94872 -16.202348,-36.86197 -9.148625,-3.90029 -14.91134,-16.94978 -14.382205,-26.4208 0.24665,-9.74749 5.852827,-13.14681 10.261344,-16.44709 9.215371,-6.89875 26.857599,-5.26395 26.857599,-5.26395"
       id="path815-5"
       inkscape:connector-curvature="0"
       sodipodi:nodetypes="ccssssssccsc" />
    <path
       style="fill:#4e2b10;fill-rule:evenodd;stroke:none;stroke-width:0.26458332px;stroke-linecap:butt;stroke-linejoin:miter;stroke-opacity:1;fill-opacity:1"
       d="M 40.224064,249.02511 H 27.261492 l -0.80181,-25.52424 29.399648,0.66817 -7.216277,6.5481 -5.479024,9.35444 z"
       id="path997"
       inkscape:connector-curvature="0" />
    <path
       style="fill:#4e2b10;fill-rule:evenodd;stroke:none;stroke-width:0.26458332px;stroke-linecap:butt;stroke-linejoin:miter;stroke-opacity:1;fill-opacity:1"
       d="m 101.524,228.0102 2.3386,5.81312 3.47451,10.69078 1.17432,5.17918 h 18.44159 0.15329 l 0.007,3e-5 v -33.51563 l -24.13307,0.19294 -8.325448,2.71278 3.835317,3.83532 z"
       id="path999"
       inkscape:connector-curvature="0"
       sodipodi:nodetypes="cccccccccccc" />
    <path
       style="fill:none;fill-rule:evenodd;stroke:#c2c2c2;stroke-width:7.3210001;stroke-linecap:round;stroke-linejoin:miter;stroke-miterlimit:4;stroke-dasharray:none;stroke-opacity:1"
       d="M 27.022676,276.28305 26.6447,224.96275 c 0,0 -1.811217,-35.65538 13.375946,-42.22181 12.034716,-5.20342 28.175394,5.50005 28.303394,19.9678 0.0801,9.05493 -6.558554,19.51887 -17.184858,26.40222 -12.550514,8.12978 -12.386345,23.67554 -6.831978,31.93247 4.7822,7.10905 16.750757,16.49401 29.522751,16.13864 10.38671,-0.289 28.912775,-9.58492 32.238675,-16.64514 7.40483,-15.71904 -0.33052,-28.3213 -14.826832,-33.73254 -8.371943,-3.56917 -13.645425,-15.5108 -13.161212,-24.17777 0.225711,-8.91997 5.355946,-12.0307 9.390195,-15.0508 8.433022,-6.31308 21.553689,-5.19505 21.553689,-5.19505"
       id="path815"
       inkscape:connector-curvature="0"
       sodipodi:nodetypes="ccssssssccsc" />
    <path
       style="fill:none;fill-rule:evenodd;stroke:#ffd700;stroke-width:1.89999993;stroke-linecap:round;stroke-linejoin:miter;stroke-miterlimit:4;stroke-dasharray:none;stroke-opacity:1"
       d="M 27.022676,276.28305 26.6447,224.96275 c 0,0 -1.811217,-35.65538 13.375946,-42.22181 12.034716,-5.20342 28.175394,5.50005 28.303395,19.9678 0.0801,9.05493 -6.558556,19.51887 -17.18486,26.40222 -12.550513,8.12978 -12.386344,23.67554 -6.831977,31.93247 4.7822,7.10905 16.750756,16.49401 29.522752,16.13864 10.386708,-0.289 28.912774,-9.58492 32.238674,-16.64514 7.40483,-15.71904 -0.33052,-28.3213 -14.826831,-33.73254 -8.371943,-3.56917 -13.645425,-15.5108 -13.161214,-24.17777 0.225711,-8.91997 5.355948,-12.0307 9.390195,-15.0508 8.433022,-6.31308 21.55369,-5.19505 21.55369,-5.19505"
       id="path815-0"
       inkscape:connector-curvature="0"
       sodipodi:nodetypes="ccssssssccsc" />
    <rect
       style="opacity:1;fill:#555555;fill-opacity:1;fill-rule:evenodd;stroke:none;stroke-width:2;stroke-linecap:round;stroke-linejoin:round;stroke-miterlimit:4;stroke-dasharray:none;stroke-opacity:1"
       id="rect1001"
       width="14.746272"
       height="26.031578"
       x="8.3532953"
       y="214.73596"
       ry="0" />
  </g>
</svg>
