<?xml version="1.0" encoding="UTF-8" standalone="no"?>
<svg
   xmlns:dc="http://purl.org/dc/elements/1.1/"
   xmlns:cc="http://creativecommons.org/ns#"
   xmlns:rdf="http://www.w3.org/1999/02/22-rdf-syntax-ns#"
   xmlns:svg="http://www.w3.org/2000/svg"
   xmlns="http://www.w3.org/2000/svg"
   xmlns:sodipodi="http://sodipodi.sourceforge.net/DTD/sodipodi-0.dtd"
   xmlns:inkscape="http://www.inkscape.org/namespaces/inkscape"
   viewBox="0 0 32 32"
   id="svg2"
   version="1.1"
   inkscape:version="0.91 r13725"
   sodipodi:docname="document-unsaved.svg">
  <metadata
     id="metadata9">
    <rdf:RDF>
      <cc:Work
         rdf:about="">
        <dc:format>image/svg+xml</dc:format>
        <dc:type
           rdf:resource="http://purl.org/dc/dcmitype/StillImage" />
        <dc:title></dc:title>
      </cc:Work>
    </rdf:RDF>
  </metadata>
  <sodipodi:namedview
     pagecolor="#ffffff"
     bordercolor="#666666"
     borderopacity="1"
     objecttolerance="10"
     gridtolerance="10"
     guidetolerance="10"
     inkscape:pageopacity="0"
     inkscape:pageshadow="2"
     inkscape:window-width="1636"
     inkscape:window-height="1021"
     id="namedview7"
     showgrid="false"
     inkscape:zoom="20.85965"
     inkscape:cx="24.477035"
     inkscape:cy="16.75769"
     inkscape:window-x="44"
     inkscape:window-y="0"
     inkscape:window-maximized="1"
     inkscape:current-layer="svg2" />
  <defs
     id="defs3051">
    <style
       type="text/css"
       id="current-color-scheme">
      .ColorScheme-Text {
        color:#4d4d4d;
      }
      </style>
  </defs>
  <path
     style="fill:#f2f2f2;fill-opacity:1;stroke:none"
     d="M 4 4 L 4 28 L 9 28 L 23 28 L 28 28 L 28 10 L 27 9 L 23 5 L 22 4 L 21 4 L 10 4 L 4 4 z M 5 5 L 10 5 L 10 13 L 21 13 L 21 5 L 21.585938 5 L 27 10.414062 L 27 27 L 23 27 L 23 19 L 9 19 L 9 27 L 5 27 L 5 5 z M 11 5 L 17 5 L 17 12 L 11 12 L 11 5 z M 10 20 L 22 20 L 22 27 L 10 27 L 10 20 z "
     id="path60"
     class="ColorScheme-Text" />
  <circle
     style="opacity:1;fill:#990000;fill-opacity:0.80392157;fill-rule:evenodd;stroke:none;stroke-width:0.903;stroke-linecap:round;stroke-linejoin:round;stroke-miterlimit:4;stroke-dasharray:none;stroke-dashoffset:0;stroke-opacity:0.80392157"
     id="path4137"
     cx="14.097203"
     cy="27.837309"
     r="2.6589966" />
  <circle
     style="opacity:1;fill:#990000;fill-opacity:0.80392157;fill-rule:evenodd;stroke:none;stroke-width:0.903;stroke-linecap:round;stroke-linejoin:round;stroke-miterlimit:4;stroke-dasharray:none;stroke-dashoffset:0;stroke-opacity:0.80392157"
     id="path4137-8"
     cx="21.349361"
     cy="27.837309"
     r="2.6589966" />
  <circle
     style="opacity:1;fill:#990000;fill-opacity:0.80392157;fill-rule:evenodd;stroke:none;stroke-width:0.903;stroke-linecap:round;stroke-linejoin:round;stroke-miterlimit:4;stroke-dasharray:none;stroke-dashoffset:0;stroke-opacity:0.80392157"
     id="path4137-3"
     cx="28.601519"
     cy="27.837309"
     r="2.6589966" />
</svg>
