<?xml version="1.0" encoding="UTF-8" standalone="no"?>
<svg
   xmlns:dc="http://purl.org/dc/elements/1.1/"
   xmlns:cc="http://creativecommons.org/ns#"
   xmlns:rdf="http://www.w3.org/1999/02/22-rdf-syntax-ns#"
   xmlns:svg="http://www.w3.org/2000/svg"
   xmlns="http://www.w3.org/2000/svg"
   xmlns:sodipodi="http://sodipodi.sourceforge.net/DTD/sodipodi-0.dtd"
   xmlns:inkscape="http://www.inkscape.org/namespaces/inkscape"
   viewBox="0 0 22 22"
   version="1.1"
   id="svg6"
   sodipodi:docname="visibility.svg"
   inkscape:version="0.92.4 (5da689c313, 2019-01-14)">
  <metadata
     id="metadata10">
    <rdf:RDF>
      <cc:Work
         rdf:about="">
        <dc:format>image/svg+xml</dc:format>
        <dc:type
           rdf:resource="http://purl.org/dc/dcmitype/StillImage" />
      </cc:Work>
    </rdf:RDF>
  </metadata>
  <sodipodi:namedview
     pagecolor="#ffffff"
     bordercolor="#666666"
     borderopacity="1"
     objecttolerance="10"
     gridtolerance="10"
     guidetolerance="10"
     inkscape:pageopacity="0"
     inkscape:pageshadow="2"
     inkscape:window-width="1628"
     inkscape:window-height="1017"
     id="namedview8"
     showgrid="false"
     inkscape:zoom="10.727273"
     inkscape:cx="-8.9957627"
     inkscape:cy="11"
     inkscape:window-x="44"
     inkscape:window-y="0"
     inkscape:window-maximized="1"
     inkscape:current-layer="svg6" />
  <defs
     id="defs3051">
    <style
       type="text/css"
       id="current-color-scheme">
      .ColorScheme-Text {
        color:#eff0f1;
      }
      </style>
  </defs>
  <path
     style="color:#eff0f1;fill:currentColor;fill-opacity:1;stroke:none;stroke-width:1.16572499"
     d="M 10.997723,5.7542374 A 11.65725,11.657222 0 0 0 0.8727635,11.664827 c 0.2157862,0.339729 0.5194787,0.614251 0.8765706,0.803714 a 10.491525,10.491499 0 0 1 9.2483889,-5.5485786 4.6629002,4.6629002 0 0 0 -4.6629001,4.6629006 4.6629002,4.6629002 0 0 0 4.6629001,4.6629 4.6629002,4.6629002 0 0 0 4.662901,-4.6629 4.6629002,4.6629002 0 0 0 -4.262183,-4.6424094 10.491525,10.491499 0 0 1 8.845394,5.5303634 c 0.360701,-0.19076 0.666775,-0.469111 0.883401,-0.81282 A 11.65725,11.657222 0 0 0 10.997723,5.7542374 Z m 0,2.3314501 a 3.4971751,3.4971751 0 0 1 3.497176,3.4971755 3.4971751,3.4971751 0 0 1 -3.497176,3.497175 3.4971751,3.4971751 0 0 1 -3.4971751,-3.497175 3.4971751,3.4971751 0 0 1 3.4971751,-3.4971755 z m 0,1.165725 c -1.2916231,0 -2.33145,1.0398275 -2.33145,2.3314505 0,1.291624 1.0398269,2.33145 2.33145,2.33145 1.291623,0 2.331451,-1.039826 2.331451,-2.33145 0,-0.238752 -0.04548,-0.464197 -0.111564,-0.680765 -0.184047,0.400679 -0.582839,0.680765 -1.054162,0.680765 -0.645811,0 -1.165725,-0.519914 -1.165725,-1.165725 0,-0.4713229 0.280085,-0.8701115 0.680764,-1.054162 C 11.461921,9.296903 11.236475,9.2514125 10.997723,9.2514125 Z"
     class="ColorScheme-Text"
     id="path4"
     inkscape:connector-curvature="0" />
</svg>
