<?xml version="1.0" encoding="UTF-8" standalone="no"?>
<!-- Svg Vector Icons : http://www.onlinewebfonts.com/icon -->

<svg
   xmlns:dc="http://purl.org/dc/elements/1.1/"
   xmlns:cc="http://creativecommons.org/ns#"
   xmlns:rdf="http://www.w3.org/1999/02/22-rdf-syntax-ns#"
   xmlns:svg="http://www.w3.org/2000/svg"
   xmlns="http://www.w3.org/2000/svg"
   xmlns:sodipodi="http://sodipodi.sourceforge.net/DTD/sodipodi-0.dtd"
   xmlns:inkscape="http://www.inkscape.org/namespaces/inkscape"
   version="1.1"
   x="0px"
   y="0px"
   viewBox="0 0 1000 1000"
   enable-background="new 0 0 1000 1000"
   xml:space="preserve"
   id="svg44"
   sodipodi:docname="microphone.svg"
   inkscape:version="0.92.4 (5da689c313, 2019-01-14)"><defs
   id="defs48" /><sodipodi:namedview
   pagecolor="#b6b6b6"
   bordercolor="#666666"
   borderopacity="1"
   objecttolerance="10"
   gridtolerance="10"
   guidetolerance="10"
   inkscape:pageopacity="0"
   inkscape:pageshadow="2"
   inkscape:window-width="1388"
   inkscape:window-height="867"
   id="namedview46"
   showgrid="false"
   inkscape:zoom="0.472"
   inkscape:cx="429.72764"
   inkscape:cy="659.62781"
   inkscape:window-x="44"
   inkscape:window-y="0"
   inkscape:window-maximized="1"
   inkscape:current-layer="svg44" />
<metadata
   id="metadata2"> Svg Vector Icons : http://www.onlinewebfonts.com/icon <rdf:RDF><cc:Work
     rdf:about=""><dc:format>image/svg+xml</dc:format><dc:type
       rdf:resource="http://purl.org/dc/dcmitype/StillImage" /><dc:title></dc:title></cc:Work></rdf:RDF></metadata>
<g
   id="g42"
   style="fill:#dddddd;fill-opacity:1;stroke:#777777;stroke-opacity:1;stroke-width:16;stroke-miterlimit:4;stroke-dasharray:none"><g
     id="g10"
     style="fill:#dddddd;fill-opacity:1;stroke:#777777;stroke-opacity:1;stroke-width:16;stroke-miterlimit:4;stroke-dasharray:none"><g
       id="g8"
       style="fill:#dddddd;fill-opacity:1;stroke:#777777;stroke-opacity:1;stroke-width:16;stroke-miterlimit:4;stroke-dasharray:none"><path
         d="M806.8,291.2c-18.8,0-34.1,15.2-34.1,34.1v238.6c0,75.2-61.1,136.3-136.3,136.3H363.7c-75.2,0-136.3-61.2-136.3-136.3V325.3c0-18.8-15.3-34.1-34.1-34.1s-34.1,15.2-34.1,34.1v238.6c0,112.8,91.7,204.5,204.5,204.5h102.3v119.3H295.5c-28.3,0-51.1,22.9-51.1,51.1c0,28.2,22.9,51.1,51.1,51.1h409c28.3,0,51.1-22.9,51.1-51.1c0-28.2-22.9-51.1-51.1-51.1H534.1V768.4h102.3c112.8,0,204.5-91.7,204.5-204.5V325.3C840.9,306.5,825.6,291.2,806.8,291.2z"
         id="path4"
         style="fill:#dddddd;fill-opacity:1;stroke:#777777;stroke-opacity:1;stroke-width:16;stroke-miterlimit:4;stroke-dasharray:none" /><path
         d="M414.8,640.6h170.4c70.5,0,127.8-57.4,127.8-127.8v-375C713,67.4,655.7,10,585.2,10H414.8C344.3,10,287,67.4,287,137.8v375C287,583.2,344.3,640.6,414.8,640.6z M338.1,512.8V342.3h42.6v238.8C355.5,568.5,338.1,542.8,338.1,512.8z M414.8,342.3h34.1v247.1h-34.1V342.3z M517,342.3v247.1h-34.1V342.3H517z M551.1,589.5V342.3h34.1v247.1H551.1z M619.3,581.1V342.3h42.6v170.4C661.9,542.8,644.5,568.5,619.3,581.1z M414.8,61.1h170.4c42.3,0,76.7,34.4,76.7,76.7v170.4H338.1V137.8C338.1,95.6,372.5,61.1,414.8,61.1z"
         id="path6"
         style="fill:#dddddd;fill-opacity:1;stroke:#777777;stroke-opacity:1;stroke-width:16;stroke-miterlimit:4;stroke-dasharray:none" /></g></g><g
     id="g12"
     style="fill:#dddddd;fill-opacity:1;stroke:#777777;stroke-opacity:1;stroke-width:16;stroke-miterlimit:4;stroke-dasharray:none" /><g
     id="g14"
     style="fill:#dddddd;fill-opacity:1;stroke:#777777;stroke-opacity:1;stroke-width:16;stroke-miterlimit:4;stroke-dasharray:none" /><g
     id="g16"
     style="fill:#dddddd;fill-opacity:1;stroke:#777777;stroke-opacity:1;stroke-width:16;stroke-miterlimit:4;stroke-dasharray:none" /><g
     id="g18"
     style="fill:#dddddd;fill-opacity:1;stroke:#777777;stroke-opacity:1;stroke-width:16;stroke-miterlimit:4;stroke-dasharray:none" /><g
     id="g20"
     style="fill:#dddddd;fill-opacity:1;stroke:#777777;stroke-opacity:1;stroke-width:16;stroke-miterlimit:4;stroke-dasharray:none" /><g
     id="g22"
     style="fill:#dddddd;fill-opacity:1;stroke:#777777;stroke-opacity:1;stroke-width:16;stroke-miterlimit:4;stroke-dasharray:none" /><g
     id="g24"
     style="fill:#dddddd;fill-opacity:1;stroke:#777777;stroke-opacity:1;stroke-width:16;stroke-miterlimit:4;stroke-dasharray:none" /><g
     id="g26"
     style="fill:#dddddd;fill-opacity:1;stroke:#777777;stroke-opacity:1;stroke-width:16;stroke-miterlimit:4;stroke-dasharray:none" /><g
     id="g28"
     style="fill:#dddddd;fill-opacity:1;stroke:#777777;stroke-opacity:1;stroke-width:16;stroke-miterlimit:4;stroke-dasharray:none" /><g
     id="g30"
     style="fill:#dddddd;fill-opacity:1;stroke:#777777;stroke-opacity:1;stroke-width:16;stroke-miterlimit:4;stroke-dasharray:none" /><g
     id="g32"
     style="fill:#dddddd;fill-opacity:1;stroke:#777777;stroke-opacity:1;stroke-width:16;stroke-miterlimit:4;stroke-dasharray:none" /><g
     id="g34"
     style="fill:#dddddd;fill-opacity:1;stroke:#777777;stroke-opacity:1;stroke-width:16;stroke-miterlimit:4;stroke-dasharray:none" /><g
     id="g36"
     style="fill:#dddddd;fill-opacity:1;stroke:#777777;stroke-opacity:1;stroke-width:16;stroke-miterlimit:4;stroke-dasharray:none" /><g
     id="g38"
     style="fill:#dddddd;fill-opacity:1;stroke:#777777;stroke-opacity:1;stroke-width:16;stroke-miterlimit:4;stroke-dasharray:none" /><g
     id="g40"
     style="fill:#dddddd;fill-opacity:1;stroke:#777777;stroke-opacity:1;stroke-width:16;stroke-miterlimit:4;stroke-dasharray:none" /></g>
<rect
   style="opacity:1;fill:#ffd700;fill-opacity:1;fill-rule:evenodd;stroke:none;stroke-width:1.29999995;stroke-linecap:round;stroke-linejoin:round;stroke-miterlimit:4;stroke-dasharray:none;stroke-opacity:1"
   id="rect936"
   width="323.79999"
   height="34.099998"
   x="338.10001"
   y="308.20001" /><rect
   style="opacity:1;fill:#ffd700;fill-opacity:1;fill-rule:evenodd;stroke:none;stroke-width:1.29999995;stroke-linecap:round;stroke-linejoin:round;stroke-miterlimit:4;stroke-dasharray:none;stroke-opacity:1"
   id="rect938"
   width="34.099998"
   height="247.10001"
   x="380.70001"
   y="342.29999" /><rect
   style="opacity:1;fill:#ffd700;fill-opacity:1;fill-rule:evenodd;stroke:none;stroke-width:1.29999995;stroke-linecap:round;stroke-linejoin:round;stroke-miterlimit:4;stroke-dasharray:none;stroke-opacity:1"
   id="rect938-4"
   width="34.099998"
   height="247.10001"
   x="448.89999"
   y="342.30002" /><rect
   style="opacity:1;fill:#ffd700;fill-opacity:1;fill-rule:evenodd;stroke:none;stroke-width:1.29999995;stroke-linecap:round;stroke-linejoin:round;stroke-miterlimit:4;stroke-dasharray:none;stroke-opacity:1"
   id="rect938-6"
   width="34.099998"
   height="247.10001"
   x="517"
   y="342.39996" /><rect
   style="opacity:1;fill:#ffd700;fill-opacity:1;fill-rule:evenodd;stroke:none;stroke-width:1.29999995;stroke-linecap:round;stroke-linejoin:round;stroke-miterlimit:4;stroke-dasharray:none;stroke-opacity:1"
   id="rect938-2"
   width="34.099998"
   height="247.10001"
   x="585.20001"
   y="342.29999" /></svg>