<?xml version="1.0" encoding="UTF-8" standalone="no"?>
<svg
   xmlns:dc="http://purl.org/dc/elements/1.1/"
   xmlns:cc="http://creativecommons.org/ns#"
   xmlns:rdf="http://www.w3.org/1999/02/22-rdf-syntax-ns#"
   xmlns:svg="http://www.w3.org/2000/svg"
   xmlns="http://www.w3.org/2000/svg"
   xmlns:sodipodi="http://sodipodi.sourceforge.net/DTD/sodipodi-0.dtd"
   xmlns:inkscape="http://www.inkscape.org/namespaces/inkscape"
   viewBox="0 0 24 24"
   version="1.1"
   id="svg6"
   sodipodi:docname="audio-input-microphone.svg"
   width="24"
   height="24"
   inkscape:version="0.92.4 (5da689c313, 2019-01-14)">
  <metadata
     id="metadata10">
    <rdf:RDF>
      <cc:Work
         rdf:about="">
        <dc:format>image/svg+xml</dc:format>
        <dc:type
           rdf:resource="http://purl.org/dc/dcmitype/StillImage" />
        <dc:title></dc:title>
      </cc:Work>
    </rdf:RDF>
  </metadata>
  <sodipodi:namedview
     pagecolor="#ffffff"
     bordercolor="#666666"
     borderopacity="1"
     objecttolerance="10"
     gridtolerance="10"
     guidetolerance="10"
     inkscape:pageopacity="0"
     inkscape:pageshadow="2"
     inkscape:window-width="1392"
     inkscape:window-height="871"
     id="namedview8"
     showgrid="false"
     inkscape:zoom="10.727273"
     inkscape:cx="11"
     inkscape:cy="11"
     inkscape:window-x="48"
     inkscape:window-y="0"
     inkscape:window-maximized="1"
     inkscape:current-layer="svg6" />
  <defs
     id="defs3051">
    <style
       type="text/css"
       id="current-color-scheme">
      .ColorScheme-Text {
        color:#eff0f1;
      }
      </style>
  </defs>
  <path
     style="color:#eff0f1;fill:currentColor;fill-opacity:1;stroke:none;stroke-width:1.25052977"
     d="m 12,1.9957628 c -1.731983,0 -3.1263248,1.3943405 -3.1263248,3.1263242 v 7.503177 c 0,1.731984 1.3943418,3.126325 3.1263248,3.126325 1.731984,0 3.126324,-1.394341 3.126324,-3.126325 V 5.1220869 C 15.126324,3.3901033 13.731984,1.9957628 12,1.9957628 Z M 5.1220863,10.74947 V 12 c 0.00115,2.795626 2.0435052,5.250847 5.0021177,6.013289 v 2.740418 H 7.6231457 v 1.25053 h 8.7537083 v -1.25053 h -2.50106 v -2.74286 C 16.833449,17.24865 18.875567,14.794721 18.877914,12 v -1.25053 h -1.25053 V 12 c 0,2.762594 -2.519467,5.002118 -5.627384,5.002118 -3.1079187,0 -5.627384,-2.239524 -5.627384,-5.002118 v -1.25053 z"
     class="ColorScheme-Text"
     id="path4"
     inkscape:connector-curvature="0" />
</svg>
