<?xml version="1.0" encoding="UTF-8" standalone="no"?>
<!-- Created with Inkscape (http://www.inkscape.org/) -->

<svg
   xmlns:dc="http://purl.org/dc/elements/1.1/"
   xmlns:cc="http://creativecommons.org/ns#"
   xmlns:rdf="http://www.w3.org/1999/02/22-rdf-syntax-ns#"
   xmlns:svg="http://www.w3.org/2000/svg"
   xmlns="http://www.w3.org/2000/svg"
   xmlns:sodipodi="http://sodipodi.sourceforge.net/DTD/sodipodi-0.dtd"
   xmlns:inkscape="http://www.inkscape.org/namespaces/inkscape"
   version="1.0"
   width="454.99899"
   height="455"
   viewBox="-9.302 -9.782 454.999 455"
   id="Layer_1"
   xml:space="preserve"
   sodipodi:docname="DIN-5.svg"
   inkscape:version="0.92.4 (5da689c313, 2019-01-14)"><metadata
   id="metadata13"><rdf:RDF><cc:Work
       rdf:about=""><dc:format>image/svg+xml</dc:format><dc:type
         rdf:resource="http://purl.org/dc/dcmitype/StillImage" /><dc:title></dc:title></cc:Work></rdf:RDF></metadata><sodipodi:namedview
   pagecolor="#3b3b3b"
   bordercolor="#666666"
   borderopacity="1"
   objecttolerance="10"
   gridtolerance="10"
   guidetolerance="10"
   inkscape:pageopacity="0"
   inkscape:pageshadow="2"
   inkscape:window-width="1392"
   inkscape:window-height="871"
   id="namedview11"
   showgrid="false"
   inkscape:zoom="0.51868132"
   inkscape:cx="-437.01945"
   inkscape:cy="490.84318"
   inkscape:window-x="48"
   inkscape:window-y="0"
   inkscape:window-maximized="1"
   inkscape:current-layer="Layer_1" /><defs
   id="defs4693" />
<path
   style="fill:#dddddd;stroke:#dddddd;stroke-width:6;fill-opacity:1;stroke-opacity:1;stroke-miterlimit:4;stroke-dasharray:none"
   d="M 226.99805 28.496094 C 117.37505 28.496094 28.498047 117.376 28.498047 227 C 28.498047 336.631 117.37505 425.50391 226.99805 425.50391 C 336.62405 425.50391 425.49805 336.631 425.49805 227 C 425.49805 117.376 336.62605 28.496094 226.99805 28.496094 z M 227.00195 45.121094 C 327.44895 45.121094 408.87691 126.557 408.87891 227 C 408.87891 314.806 346.64391 388.07886 263.87891 405.13086 C 261.38991 386.96386 245.84191 372.94922 227.00391 372.94922 C 208.15191 372.94922 192.60528 386.959 190.11328 405.125 C 107.35128 388.079 45.117188 314.806 45.117188 227 C 45.117187 126.557 126.55395 45.121094 227.00195 45.121094 z "
   transform="translate(-9.302,-9.782)"
   id="path4678" />
<path
   d="M 298.979,217.215 C 298.979,231.108 310.241,242.363 324.129,242.363 C 338.024,242.363 349.278,231.105 349.278,217.215 C 349.278,203.332 338.021,192.069 324.129,192.069 C 310.239,192.07 298.979,203.332 298.979,217.215 z "
   style="fill:#ffd700;stroke:#ffd700;stroke-width:5;stroke-opacity:1;fill-opacity:1"
   id="path4680" />
<path
   d="M 86.112,217.215 C 86.112,231.108 97.374,242.363 111.263,242.363 C 125.157,242.363 136.414,231.105 136.414,217.215 C 136.414,203.332 125.157,192.069 111.263,192.069 C 97.374,192.07 86.112,203.332 86.112,217.215 z "
   style="fill:#ffd700;stroke:#ffd700;stroke-width:5;fill-opacity:1;stroke-opacity:1"
   id="path4682" />
<path
   d="M 124.657,124.185 C 114.837,134.005 114.837,149.931 124.662,159.751 C 134.483,169.577 150.402,169.577 160.228,159.751 C 170.042,149.936 170.048,134.01 160.223,124.19 C 150.402,114.365 134.477,114.365 124.657,124.185 z "
   style="fill:#ffd700;stroke:#ffd700;stroke-width:5;stroke-opacity:1;fill-opacity:1"
   id="path4684" />
<path
   d="M 217.696,85.657 C 203.808,85.657 192.546,96.919 192.551,110.807 C 192.546,124.701 203.802,135.958 217.699,135.958 C 231.576,135.958 242.842,124.701 242.842,110.807 C 242.842,96.919 231.585,85.657 217.696,85.657 z "
   style="fill:#ffd700;stroke:#ffd700;stroke-width:5;fill-opacity:1;stroke-opacity:1"
   id="path4686" />
<path
   d="M 310.726,124.202 C 300.912,114.381 284.981,114.381 275.164,124.207 C 265.333,134.027 265.333,149.946 275.159,159.772 C 284.974,169.587 300.899,169.593 310.721,159.767 C 320.546,149.946 320.546,134.021 310.726,124.202 z "
   style="fill:#ffd700;stroke:#ffd700;stroke-width:5;fill-opacity:1;stroke-opacity:1"
   id="path4688" />

</svg>